<svg xmlns="http://www.w3.org/2000/svg" xmlns:xlink="http://www.w3.org/1999/xlink" width="229.293" height="82.493" viewBox="0 0 229.293 82.493">
  <defs>
    <linearGradient id="linear-gradient" x1="0.515" y1="-0.251" x2="0.491" y2="0.991" gradientUnits="objectBoundingBox">
      <stop offset="0.16" stop-color="#65fae1"/>
      <stop offset="0.849" stop-color="#0a86d0"/>
    </linearGradient>
    <linearGradient id="linear-gradient-2" x1="0.509" y1="-0.157" x2="0.493" y2="0.854" xlink:href="#linear-gradient"/>
    <linearGradient id="linear-gradient-3" x1="0.528" y1="-0.274" x2="0.5" y2="0.886" xlink:href="#linear-gradient"/>
    <linearGradient id="linear-gradient-4" x1="0.513" y1="-0.19" x2="0.495" y2="0.816" xlink:href="#linear-gradient"/>
    <linearGradient id="linear-gradient-5" x1="0.513" y1="-0.085" x2="0.496" y2="0.969" xlink:href="#linear-gradient"/>
    <linearGradient id="linear-gradient-6" x1="0.517" y1="-0.184" x2="0.492" y2="0.949" xlink:href="#linear-gradient"/>
    <linearGradient id="linear-gradient-7" x1="0.515" y1="0.072" x2="0.49" y2="1.062" xlink:href="#linear-gradient"/>
  </defs>
  <g id="Raggruppa_295" data-name="Raggruppa 295" transform="translate(-114.109 -51.548)">
    <path id="Tracciato_2511" data-name="Tracciato 2511" d="M407.96,175.142a33.935,33.935,0,0,1-8.2-1.723,2.917,2.917,0,0,1-2.387-3.1,74.881,74.881,0,0,1,.359-8.795,93.187,93.187,0,0,1,3.019-15.749c.36-1.291.717-2.554,1.141-3.8.04-.118.076-.24.112-.362a3.411,3.411,0,0,1,1.451-2.206,8.793,8.793,0,0,1,3.319-.851c.29-.036.563-.069.795-.107a40.764,40.764,0,0,1,4.23-.459c.163-.009.327-.017.49-.02a4.68,4.68,0,0,1,1.716.242,5.62,5.62,0,0,1,1.878,1.287,29.929,29.929,0,0,1,4.971,5.479,23.412,23.412,0,0,1,2.46,5.975c.152.494.3.961.446,1.422A139.711,139.711,0,0,1,428,168.664a3.463,3.463,0,0,1-1.313,3.245,15.193,15.193,0,0,1-7.8,2.189h0a17.083,17.083,0,0,1-3.107-.22,1.843,1.843,0,0,1-1.67-1.632,15.724,15.724,0,0,1-.251-2.02,9.074,9.074,0,0,1-4.074-.14,25.347,25.347,0,0,1-.507,4.071l-.224,1.077Zm2.5-11.853a22.208,22.208,0,0,0,2.377.082l.2,0a4.907,4.907,0,0,0-.381-1.192c-.278-.563-.729-.968-1.07-.961a.758.758,0,0,0-.435.193,2.945,2.945,0,0,0-.682,1.814C410.462,163.245,410.459,163.268,410.457,163.289Z" transform="translate(-241.855 -73.792)" fill="#3c3c3b"/>
    <path id="Tracciato_2512" data-name="Tracciato 2512" d="M1088.923,154.824c-.819.016-1.627-.006-2.4-.065a26.64,26.64,0,0,1-10.107-3.032,46.811,46.811,0,0,1-4.9-3.019c-1.107-.747-2.252-1.519-3.411-2.2-.064-.037-.13-.077-.2-.117l-.1-.059c-.7-.426-1.495-.906-2.273-1.345-.505-.286-.924-.51-1.318-.706-.061-.03-.146-.062-.235-.1a2.7,2.7,0,0,1-.734-.375,1.23,1.23,0,0,1-.507-.883,1.739,1.739,0,0,1,.583-1.291,8.11,8.11,0,0,1,3.375-2.009q-.454-.175-1.117-.383c-.164-.051-.307-.1-.419-.135l-.028-.01a2.413,2.413,0,0,1-.789-.4c-.376-.308-.879-1,0-2.217,1.776-2.454,4.413-3.932,7.02-5.2.022-.489.059-.974.1-1.467.308-3.9.656-8.313,2.16-12.35a3.573,3.573,0,0,1,1.4-1.976,1.794,1.794,0,0,1,.889-.248,2.437,2.437,0,0,1,.894.166c1.666.62,3.572,2.914,5.218,5.076l.21.275a30.6,30.6,0,0,1,3.75,6.3,18.968,18.968,0,0,1,6.013,1,30.551,30.551,0,0,1,5.593-4.739l.287-.191c2.26-1.511,4.809-3.061,6.585-3.106h.019a1.993,1.993,0,0,1,1.639.656,3.568,3.568,0,0,1,.687,2.326c.11,4.3-.994,8.594-1.969,12.382-.129.5-.25.963-.383,1.418,2.053,2.045,4.066,4.3,4.948,7.2.453,1.482-.354,1.96-.722,2.1a2.186,2.186,0,0,1-.723.12h-.183c-.208,0-.438-.012-.682-.025-.314-.016-.64-.033-.954-.027h-.04a7.987,7.987,0,0,1,2.6,3.039,1.737,1.737,0,0,1,.132,1.41,1.227,1.227,0,0,1-.765.67,10.07,10.07,0,0,1-2.049.383c-.41.047-.8.092-1.149.164-1.18.239-2.364.521-3.366.765q-.65.159-1.3.321c-1.72.427-3.5.868-5.279,1.212a34.941,34.941,0,0,1-5.993.682Z" transform="translate(-809.999 -54.392)" fill="#3c3c3b"/>
    <path id="Tracciato_2513" data-name="Tracciato 2513" d="M911.992,183.844a18.7,18.7,0,0,1-3.22-.217c-4.173-.647-8.835-1.6-11.327-4.754a16.2,16.2,0,0,1-2.705-14.39,19.217,19.217,0,0,1,5.128-8.307,23.666,23.666,0,0,1,8.335-5.2,18.478,18.478,0,0,1,5.916-1.2,13.016,13.016,0,0,1,2.236.146,14.162,14.162,0,0,1,7.114,3.46,17.567,17.567,0,0,1,5.585,15.9,18.009,18.009,0,0,1-10.5,13.191,17.6,17.6,0,0,1-6.559,1.374Zm1.758-24.4a11.135,11.135,0,0,0-4.935,1.49c-1.015.586-2.389,1.5-2.6,2.621a3.286,3.286,0,0,0,.944,2.449,4.91,4.91,0,0,0,2.332,1.676,4.976,4.976,0,0,0,1.531.181,10.563,10.563,0,0,0,1.408-.135,6.872,6.872,0,0,0,3.879-1.584,4.894,4.894,0,0,0,1.177-3.75,2.61,2.61,0,0,0-.2-1.136A3.559,3.559,0,0,0,913.749,159.445Z" transform="translate(-666.007 -83.872)" fill="#3c3c3b"/>
    <path id="Tracciato_2514" data-name="Tracciato 2514" d="M573.933,164.881a18,18,0,0,1-11.666-4.037,18.905,18.905,0,0,1-6.183-15.533c.326-5.881,2.815-11.054,6.828-14.192a15.09,15.09,0,0,1,3.813-2.154,16.575,16.575,0,0,1,5.971-1.133,15.61,15.61,0,0,1,1.807.1c2.074.242,5.779,1.059,7.29,3.813a4.1,4.1,0,0,1-.515,4.78,3.449,3.449,0,0,1-2.512,1.083,6.18,6.18,0,0,1-1.742-.316l-.028-.008c-.1-.029-.206-.059-.311-.088a10.013,10.013,0,0,0-2.594-.371c-.21,0-.419.008-.622.025a6.072,6.072,0,0,0-.993.156,5.934,5.934,0,0,0-3.17,2.418,5.08,5.08,0,0,0-.944,3.42,3.476,3.476,0,0,0,2.24,2.917,4.4,4.4,0,0,0,1.455.239,12.374,12.374,0,0,0,3.945-.962l.526-.187a14.523,14.523,0,0,1,4.792-1.005c.154,0,.309,0,.461.012a7.446,7.446,0,0,1,4.079,1.488,9.149,9.149,0,0,1,3.4,8.447c-.89,6.12-6.991,10.112-12.558,10.892a20.045,20.045,0,0,1-2.772.193Z" transform="translate(-377.36 -65.136)" fill="#3c3c3b"/>
    <path id="Tracciato_2515" data-name="Tracciato 2515" d="M172.437,157.226a14.706,14.706,0,0,1-2.74.075c-.283-.02-.563-.05-.832-.088a4.411,4.411,0,0,1-3.324-1.773,9.032,9.032,0,0,1-1.2-2.914l-.049-.181c-.519-1.912-.93-3.422-2.294-4.658-.717-.649-1.459-1.313-2.206-1.975-.1-.092-.21-.189-.315-.287a3.326,3.326,0,0,0-1.213-.849.515.515,0,0,0-.193-.017l-.021,0a.85.85,0,0,0-.509.382,1.455,1.455,0,0,0-.265,1.02,2.564,2.564,0,0,0,.315.7l.068.122a13.692,13.692,0,0,1,1.685,5.529,3.68,3.68,0,0,1-.357,2.2,3.21,3.21,0,0,1-1.043,1.054,9.349,9.349,0,0,1-3.777,1.3c-.19.031-.379.059-.568.087-.124.018-.248.035-.373.05a3.111,3.111,0,0,1-2.259-.436,7.978,7.978,0,0,1-2.355-3.907s-.093-.257-.133-.364c-.652-1.769-1.235-3.585-1.733-5.4a56.414,56.414,0,0,1-1.361-6.367c-.042-.273-.08-.545-.119-.816a10.75,10.75,0,0,0-1.208-4.292c-.052-.085-.109-.173-.177-.27a20.394,20.394,0,0,0-1.956-2.294c-.249-.264-.506-.537-.756-.813a30.928,30.928,0,0,1-3.855-5.271c-.106-.183-.237-.4-.38-.629-1.265-2.062-2.279-3.893-1.881-5.421l.076-.294.172-.25a2.675,2.675,0,0,1,1.957-.974l.39-.061c.068-.011.137-.023.2-.037.591-.127,1.2-.242,1.8-.34.58-.094,1.175-.177,1.766-.244l.018,0a38.365,38.365,0,0,1,9.518.139,2.183,2.183,0,0,0,.452.033l.044-.005a2.431,2.431,0,0,0,.421-.133,40.518,40.518,0,0,1,7.789-2.356c.324-.053.647-.1.96-.133.531-.061,1.044-.1,1.568-.112a17.215,17.215,0,0,1,8.2,1.735,10.007,10.007,0,0,1,5.6,9.967v.032a12.471,12.471,0,0,1-.842,4.407,9.573,9.573,0,0,1-5.143,5.4,8.076,8.076,0,0,1-1.753.495q-.192.031-.383.053a8.481,8.481,0,0,1-8.073-4,5.86,5.86,0,0,1-.47-5.161,6.134,6.134,0,0,1,1.647-2.457,5.689,5.689,0,0,0-1.142,1.081,5.99,5.99,0,0,0,.265,7.653,12.723,12.723,0,0,0,7.187,3.5c.218.042.439.081.662.12l.316.054.03.005a6.942,6.942,0,0,1,6.048,4.186l.041.067a35.109,35.109,0,0,1,3.976,9.416,3.36,3.36,0,0,1-.029,2.2,3.487,3.487,0,0,1-2.625,1.909c-.889.21-1.617.359-2.292.469C173.079,157.144,172.751,157.19,172.437,157.226Zm-31.608-33.77c.085.221.172.441.273.656a21.066,21.066,0,0,0,2.209,3.683,19.6,19.6,0,0,0,1.37,1.649,2.358,2.358,0,0,0,.253.222c.078-.22.143-.458.211-.7.054-.194.109-.394.173-.6a22.647,22.647,0,0,1,1.937-4.111l.034-.063q.139-.25.276-.5a5.089,5.089,0,0,0,.325-.664,3.283,3.283,0,0,0-.525-.073l-.03,0c-.077-.006-.15-.012-.218-.019a21.47,21.47,0,0,0-3.421-.138c-.186.011-.371.027-.55.048-.152.017-.3.038-.448.062A7.345,7.345,0,0,0,140.828,123.456Z" transform="translate(-17.811 -54.985)" fill="#3c3c3b"/>
    <path id="Tracciato_2516" data-name="Tracciato 2516" d="M1357.772,177.551c-.437-.063-.86-.154-1.179-.227a39.308,39.308,0,0,1-7.556-2.56,3.818,3.818,0,0,1-1.6-1.167,4.038,4.038,0,0,1-.48-3.011l.007-.056a18.341,18.341,0,0,0-.423-6.665,51.834,51.834,0,0,1-3.218,5.739,2.277,2.277,0,0,1-1.235,1.039l-.015,0a2.055,2.055,0,0,1-.875.048c-.082-.012-.163-.027-.243-.043a30.448,30.448,0,0,1-9.408-3.6,4.017,4.017,0,0,1-2.159-2.586,4.114,4.114,0,0,1,.524-2.455c.683-1.444,1.348-2.931,1.974-4.422,1.136-2.707,2.177-5.5,3.094-8.3.236-.718.463-1.437.676-2.137.044-.145.094-.283.142-.417a3.072,3.072,0,0,0,.18-.615,3.665,3.665,0,0,0-.794-1.091,6.539,6.539,0,0,1-1.141-1.56c-1.141-2.409.25-5.03,1-6.438a2.4,2.4,0,0,1,1.144-1.174,2.2,2.2,0,0,1,1.2-.124c.063.009.126.019.187.03a74.282,74.282,0,0,1,10.225,2.584,7.181,7.181,0,0,1,2.252,1.084,6.962,6.962,0,0,1,1.642,2.06q.93,1.59,1.727,3.256a22.685,22.685,0,0,1,1.569-5l.281-.628.682-.1a51.947,51.947,0,0,1,14.322-.073,39.362,39.362,0,0,1,5.9,1.3c1.84.56,2.133,1.664,2.143,2.272a2.638,2.638,0,0,1-.663,1.654c-3.08,4-6.266,8.145-10.557,11.171l-.022.016a2.162,2.162,0,0,0-.266.2,2.3,2.3,0,0,0-.122.385l-.9,3.424a16.723,16.723,0,0,0-.4,2.388c-.018.155-.037.312-.057.472-.293,2.4-.526,4.813-.694,7.179l-.011.155a14.734,14.734,0,0,1-.727,4.242,5.776,5.776,0,0,1-3.56,3.617,5.85,5.85,0,0,1-2.566.125ZM1364,143.773a3.056,3.056,0,0,0,.194.481l.03.063a21.453,21.453,0,0,1,1.471,4.594,11.1,11.1,0,0,0,1.7-1.242,27.377,27.377,0,0,0,2.746-2.564,2.273,2.273,0,0,0,.355-.478.4.4,0,0,0,.04-.13c-.019-.028-.115-.142-.491-.273a7.133,7.133,0,0,0-.851-.218l-.142-.03c-.333-.072-.675-.133-1.015-.182a14.834,14.834,0,0,0-4.027-.022Z" transform="translate(-1037.648 -71.858)" fill="#3c3c3b"/>
    <g id="Raggruppa_271" data-name="Raggruppa 271" transform="translate(254.356 58.551)">
      <path id="Tracciato_2517" data-name="Tracciato 2517" d="M1105.01,144.043c-.819.016-1.627-.006-2.4-.065a26.637,26.637,0,0,1-10.107-3.032,46.774,46.774,0,0,1-4.9-3.019c-1.107-.747-2.252-1.519-3.411-2.2-.064-.037-.13-.077-.2-.117l-.1-.059c-.7-.426-1.495-.906-2.273-1.345-.505-.286-.924-.51-1.318-.706-.061-.031-.146-.062-.235-.1a2.707,2.707,0,0,1-.735-.375,1.229,1.229,0,0,1-.507-.883,1.738,1.738,0,0,1,.583-1.291,8.106,8.106,0,0,1,3.375-2.009q-.454-.175-1.116-.383c-.164-.051-.307-.1-.419-.135l-.028-.01a2.419,2.419,0,0,1-.788-.4c-.376-.307-.878-1,0-2.217,1.776-2.454,4.412-3.932,7.019-5.2.022-.489.059-.974.1-1.467.307-3.9.656-8.313,2.16-12.35a3.573,3.573,0,0,1,1.4-1.976,1.8,1.8,0,0,1,.888-.248,2.439,2.439,0,0,1,.894.166c1.665.62,3.572,2.913,5.218,5.076l.21.275a30.6,30.6,0,0,1,3.75,6.3,18.964,18.964,0,0,1,6.013,1,30.561,30.561,0,0,1,5.593-4.739l.287-.191c2.259-1.511,4.809-3.061,6.585-3.106h.019a1.993,1.993,0,0,1,1.639.656,3.57,3.57,0,0,1,.687,2.326c.11,4.3-.994,8.594-1.968,12.382-.129.5-.251.963-.384,1.418,2.053,2.045,4.066,4.3,4.948,7.2.454,1.482-.354,1.96-.722,2.1a2.186,2.186,0,0,1-.723.12h-.183c-.208,0-.438-.012-.682-.025-.314-.016-.64-.033-.954-.027h-.04a7.989,7.989,0,0,1,2.6,3.039,1.738,1.738,0,0,1,.132,1.411,1.227,1.227,0,0,1-.765.67,10.07,10.07,0,0,1-2.049.383c-.41.047-.8.092-1.149.164-1.18.239-2.364.521-3.366.765l-1.3.321c-1.72.427-3.5.868-5.279,1.212a34.943,34.943,0,0,1-5.993.682Z" transform="translate(-1078.091 -103.737)" fill="#3c3c3b"/>
      <path id="Tracciato_2518" data-name="Tracciato 2518" d="M1100.224,140.51c-.661,0-1.312-.024-1.941-.072a27.349,27.349,0,0,1-10.382-3.109,47.355,47.355,0,0,1-4.979-3.064c-1.1-.74-2.232-1.506-3.371-2.171-.06-.034-.125-.074-.19-.113l-.114-.069c-.7-.423-1.486-.9-2.255-1.334-.494-.279-.9-.5-1.285-.689-.026-.013-.1-.042-.159-.063a3.387,3.387,0,0,1-.93-.482,1.974,1.974,0,0,1-.79-1.4,2.441,2.441,0,0,1,.774-1.848,7.349,7.349,0,0,1,1.881-1.434,2.81,2.81,0,0,1-.783-.441c-.362-.3-1.44-1.4-.134-3.21a17.847,17.847,0,0,1,6.905-5.24c.022-.364.05-.719.077-1.058.312-3.943.664-8.414,2.2-12.546a4.275,4.275,0,0,1,1.715-2.349,2.526,2.526,0,0,1,1.248-.35,3.183,3.183,0,0,1,1.162.211c1.835.683,3.75,2.96,5.545,5.318.08.105.149.2.207.271a31.343,31.343,0,0,1,3.647,6.023,19.61,19.61,0,0,1,5.323.889,31.318,31.318,0,0,1,5.405-4.512l.247-.164.036-.024c2.465-1.648,5.015-3.179,6.972-3.229h.016a2.7,2.7,0,0,1,2.217.912,4.271,4.271,0,0,1,.861,2.782c.113,4.4-1,8.749-1.991,12.583-.086.331-.176.677-.271,1.023a17.841,17.841,0,0,1,4.828,7.2c.519,1.7-.263,2.659-1.168,2.994a2.836,2.836,0,0,1-.881.163,7.416,7.416,0,0,1,1.31,1.968,2.44,2.44,0,0,1,.131,2,1.972,1.972,0,0,1-1.2,1.067,10.581,10.581,0,0,1-2.193.416c-.4.047-.772.09-1.093.155-1.17.237-2.344.517-3.339.759l-1.216.3-.081.02c-1.728.429-3.516.872-5.316,1.22a35.636,35.636,0,0,1-6.118.7l-.015-.731.014.731Q1100.489,140.51,1100.224,140.51Zm-12.457-39.58h-.024a1.06,1.06,0,0,0-.531.147,2.87,2.87,0,0,0-1.09,1.6c-1.468,3.941-1.812,8.3-2.116,12.152-.037.46-.075.95-.1,1.442l-.019.434-.391.19c-2.351,1.144-5.006,2.565-6.747,4.971-.6.834-.268,1.106-.126,1.222a1.777,1.777,0,0,0,.565.274l.026.009c.109.037.245.08.4.129.451.141.841.276,1.16.4l1.925.742-1.962.635a7.4,7.4,0,0,0-3.062,1.808c-.167.181-.417.454-.393.734a.514.514,0,0,0,.225.367,2.051,2.051,0,0,0,.545.269,3.251,3.251,0,0,1,.3.125c.406.2.836.433,1.352.724.788.445,1.587.929,2.292,1.356l.112.067.17.1c1.183.69,2.338,1.47,3.454,2.223a46.3,46.3,0,0,0,4.824,2.973,25.93,25.93,0,0,0,9.831,2.955c.751.057,1.535.078,2.332.063h.015a34.181,34.181,0,0,0,5.854-.669c1.763-.34,3.532-.779,5.242-1.2l.081-.02q.61-.151,1.221-.3c1.008-.246,2.2-.53,3.394-.772.382-.078.782-.124,1.206-.173a9.528,9.528,0,0,0,1.9-.35.51.51,0,0,0,.33-.273,1.116,1.116,0,0,0-.133-.822,7.289,7.289,0,0,0-2.36-2.743l-1.733-1.273,2.191-.047c.342-.007.68.011,1.007.028.221.012.448.024.642.024h.173a1.479,1.479,0,0,0,.485-.075c.141-.052.576-.214.275-1.2-.865-2.842-2.913-5.049-4.765-6.894l-.307-.306.122-.417c.135-.463.261-.943.378-1.4.962-3.741,2.053-7.981,1.945-12.181a2.866,2.866,0,0,0-.513-1.872,1.3,1.3,0,0,0-1.068-.4h-.011c-1.6.041-4.155,1.616-6.2,2.983l-.036.024-.255.17a29.851,29.851,0,0,0-5.458,4.625l-.321.346-.448-.151a18.237,18.237,0,0,0-5.785-.966l-.472,0-.191-.432a29.875,29.875,0,0,0-3.66-6.148c-.06-.077-.131-.171-.213-.279-1.49-1.957-3.392-4.275-4.891-4.833A1.742,1.742,0,0,0,1087.768,100.93Z" transform="translate(-1073.822 -99.469)" fill="#3c3c3b"/>
    </g>
    <g id="Raggruppa_272" data-name="Raggruppa 272" transform="translate(228.156 62.589)">
      <path id="Tracciato_2519" data-name="Tracciato 2519" d="M917.42,166.169a18.7,18.7,0,0,1-3.22-.217c-4.173-.647-8.835-1.6-11.327-4.754a16.2,16.2,0,0,1-2.705-14.39A19.219,19.219,0,0,1,905.3,138.5a23.664,23.664,0,0,1,8.335-5.2,18.481,18.481,0,0,1,5.916-1.2,13.015,13.015,0,0,1,2.236.146,14.162,14.162,0,0,1,7.114,3.46,17.567,17.567,0,0,1,5.585,15.9,18.01,18.01,0,0,1-10.5,13.191,17.6,17.6,0,0,1-6.559,1.374Zm1.758-24.4a11.133,11.133,0,0,0-4.935,1.49c-1.015.586-2.39,1.5-2.6,2.621a3.286,3.286,0,0,0,.944,2.449,4.909,4.909,0,0,0,2.332,1.676,4.974,4.974,0,0,0,1.532.181,10.565,10.565,0,0,0,1.408-.135,6.873,6.873,0,0,0,3.879-1.584,4.895,4.895,0,0,0,1.177-3.75,2.61,2.61,0,0,0-.2-1.136A3.559,3.559,0,0,0,919.177,141.77Z" transform="translate(-898.798 -131.369)" fill="#3c3c3b"/>
      <path id="Tracciato_2520" data-name="Tracciato 2520" d="M912.8,162.634a19.427,19.427,0,0,1-2.974-.23c-4.311-.668-9.132-1.662-11.788-5.023a16.946,16.946,0,0,1-2.834-15.048,19.952,19.952,0,0,1,5.32-8.627,24.4,24.4,0,0,1,8.594-5.359,19.2,19.2,0,0,1,6.153-1.245,13.769,13.769,0,0,1,2.362.154,14.886,14.886,0,0,1,7.484,3.633,18.313,18.313,0,0,1,5.823,16.569A18.757,18.757,0,0,1,920,161.2a18.321,18.321,0,0,1-6.83,1.432l-.014-.731.014.731Q912.985,162.634,912.8,162.634Zm2.75-34.073-.251,0a17.75,17.75,0,0,0-5.68,1.157,22.923,22.923,0,0,0-8.076,5.034,18.487,18.487,0,0,0-4.936,7.988,15.462,15.462,0,0,0,2.577,13.732c2.328,2.945,6.829,3.86,10.866,4.485a17.933,17.933,0,0,0,3.094.209h0a16.871,16.871,0,0,0,6.288-1.317A17.263,17.263,0,0,0,929.5,147.21a16.821,16.821,0,0,0-5.347-15.222,13.433,13.433,0,0,0-6.744-3.288A12.194,12.194,0,0,0,915.548,128.561Zm-3.5,18.09a5.545,5.545,0,0,1-1.6-.213,5.621,5.621,0,0,1-2.687-1.911,3.841,3.841,0,0,1-1.1-3.047c.261-1.407,1.714-2.407,2.951-3.121a11.906,11.906,0,0,1,5.286-1.588,4.246,4.246,0,0,1,4.2,2.206,3.225,3.225,0,0,1,.287,1.457,5.574,5.574,0,0,1-1.392,4.285,7.542,7.542,0,0,1-4.283,1.788,11.248,11.248,0,0,1-1.506.143Zm2.879-8.42h0a10.364,10.364,0,0,0-4.584,1.393c-1.376.795-2.131,1.509-2.245,2.122a2.56,2.56,0,0,0,.789,1.85,4.2,4.2,0,0,0,1.978,1.442,4.247,4.247,0,0,0,1.308.151,9.855,9.855,0,0,0,1.31-.127,6.214,6.214,0,0,0,3.476-1.38,4.225,4.225,0,0,0,.962-3.216,2.183,2.183,0,0,0-.121-.813A2.854,2.854,0,0,0,914.928,138.232Z" transform="translate(-894.534 -127.1)" fill="#3c3c3b"/>
    </g>
    <g id="Raggruppa_273" data-name="Raggruppa 273" transform="translate(152.303 61.952)">
      <path id="Tracciato_2521" data-name="Tracciato 2521" d="M391.079,164.913a33.943,33.943,0,0,1-8.2-1.723,2.917,2.917,0,0,1-2.387-3.1,74.9,74.9,0,0,1,.359-8.795,93.2,93.2,0,0,1,3.019-15.749c.36-1.291.718-2.554,1.141-3.8.04-.119.076-.24.112-.362a3.41,3.41,0,0,1,1.451-2.206,8.792,8.792,0,0,1,3.319-.851c.29-.036.563-.069.795-.107a40.719,40.719,0,0,1,4.23-.459c.163-.009.327-.017.49-.02a4.673,4.673,0,0,1,1.716.242A5.618,5.618,0,0,1,399,129.271a29.929,29.929,0,0,1,4.971,5.479,23.406,23.406,0,0,1,2.46,5.975c.152.494.3.961.446,1.422a139.723,139.723,0,0,1,4.245,16.287,3.463,3.463,0,0,1-1.313,3.245,15.191,15.191,0,0,1-7.8,2.189h0a17.112,17.112,0,0,1-3.107-.22,1.843,1.843,0,0,1-1.67-1.632,15.741,15.741,0,0,1-.251-2.02,9.074,9.074,0,0,1-4.074-.14,25.323,25.323,0,0,1-.507,4.072L392.175,165Zm2.5-11.853a22.168,22.168,0,0,0,2.377.082l.2,0a4.9,4.9,0,0,0-.381-1.192c-.278-.564-.729-.968-1.07-.961a.76.76,0,0,0-.435.193,2.946,2.946,0,0,0-.682,1.814C393.58,153.017,393.578,153.04,393.575,153.061Z" transform="translate(-379.744 -127.011)" fill="#3c3c3b"/>
      <path id="Tracciato_2522" data-name="Tracciato 2522" d="M388.489,161.518l-1.74-.145a34.674,34.674,0,0,1-8.381-1.76,4.152,4.152,0,0,1-2.462-1.848,4.11,4.11,0,0,1-.418-1.927,75.557,75.557,0,0,1,.362-8.881,93.93,93.93,0,0,1,3.042-15.873c.363-1.3.724-2.578,1.153-3.839.035-.1.065-.207.1-.312l.006-.022a4.078,4.078,0,0,1,1.782-2.629,9.323,9.323,0,0,1,3.6-.946c.271-.033.548-.067.769-.1a41.514,41.514,0,0,1,4.306-.467c.171-.01.344-.018.517-.021a5.369,5.369,0,0,1,1.98.286,6.3,6.3,0,0,1,2.125,1.438,30.5,30.5,0,0,1,5.087,5.617,23.953,23.953,0,0,1,2.546,6.158c.151.49.293.952.442,1.41a140.456,140.456,0,0,1,4.267,16.373,4.211,4.211,0,0,1-1.636,4,15.929,15.929,0,0,1-8.18,2.3,17.856,17.856,0,0,1-3.24-.23,2.567,2.567,0,0,1-2.269-2.217c-.083-.434-.148-.875-.2-1.317-.291.032-.585.051-.88.056a9.692,9.692,0,0,1-1.853-.14,26.14,26.14,0,0,1-.47,3.324ZM391.3,124.2l-.15,0c-.155,0-.31.01-.464.019a40.03,40.03,0,0,0-4.154.451c-.248.04-.54.076-.822.111a8.288,8.288,0,0,0-3.038.756,2.73,2.73,0,0,0-1.121,1.784l-.007.022c-.037.124-.073.248-.115.368-.416,1.225-.772,2.478-1.129,3.761a92.467,92.467,0,0,0-3,15.625,74.132,74.132,0,0,0-.355,8.708,2.213,2.213,0,0,0,1.893,2.422,33.226,33.226,0,0,0,8.027,1.686l.452.038.092-.444a24.676,24.676,0,0,0,.492-3.954l.039-.911.88.237a8.343,8.343,0,0,0,3.744.129l.821-.161.049.835a15.017,15.017,0,0,0,.239,1.926,1.126,1.126,0,0,0,1.072,1.048,16.424,16.424,0,0,0,2.974.211,14.454,14.454,0,0,0,7.421-2.074,2.734,2.734,0,0,0,.99-2.488,138.964,138.964,0,0,0-4.223-16.2c-.153-.47-.3-.938-.45-1.434a22.858,22.858,0,0,0-2.374-5.792,29.359,29.359,0,0,0-4.854-5.341A4.959,4.959,0,0,0,392.6,124.4,3.793,3.793,0,0,0,391.3,124.2Zm-.04,25.406c-.672,0-1.349-.03-2.018-.089l-.744-.066.082-.742c0-.026.006-.054.01-.084a3.452,3.452,0,0,1,.954-2.292,1.456,1.456,0,0,1,.874-.35h.023a2.208,2.208,0,0,1,1.716,1.368,5.547,5.547,0,0,1,.442,1.371l.171.849-.865.026-.208,0Q391.479,149.609,391.26,149.609Zm-1.1-1.49q.374.019.748.025-.032-.075-.066-.144a1.5,1.5,0,0,0-.4-.518C390.4,147.518,390.279,147.654,390.164,148.119Zm.215-.68Z" transform="translate(-375.474 -122.742)" fill="#3c3c3b"/>
    </g>
    <g id="Raggruppa_274" data-name="Raggruppa 274" transform="translate(176.303 60.023)">
      <path id="Tracciato_2523" data-name="Tracciato 2523" d="M562.588,151.572a18,18,0,0,1-11.666-4.037A18.906,18.906,0,0,1,544.74,132c.326-5.881,2.815-11.054,6.828-14.192a15.093,15.093,0,0,1,3.814-2.154,16.574,16.574,0,0,1,5.971-1.133,15.6,15.6,0,0,1,1.806.1c2.074.242,5.779,1.059,7.29,3.813a4.1,4.1,0,0,1-.515,4.78,3.449,3.449,0,0,1-2.512,1.083,6.18,6.18,0,0,1-1.741-.316l-.028-.008c-.1-.029-.206-.059-.312-.088a10.015,10.015,0,0,0-2.594-.371c-.21,0-.419.008-.622.025a6.077,6.077,0,0,0-.993.157,5.933,5.933,0,0,0-3.169,2.417,5.079,5.079,0,0,0-.944,3.42,3.476,3.476,0,0,0,2.24,2.917,4.407,4.407,0,0,0,1.455.239,12.373,12.373,0,0,0,3.945-.962l.526-.187a14.522,14.522,0,0,1,4.792-1.005c.154,0,.309,0,.461.012a7.445,7.445,0,0,1,4.079,1.487,9.148,9.148,0,0,1,3.4,8.447c-.89,6.12-6.991,10.112-12.558,10.892a20.057,20.057,0,0,1-2.772.193Z" transform="translate(-543.976 -113.795)" fill="#3c3c3b"/>
      <path id="Tracciato_2524" data-name="Tracciato 2524" d="M558.32,148.048h0a18.729,18.729,0,0,1-12.138-4.21,19.638,19.638,0,0,1-6.44-16.132c.337-6.091,2.928-11.459,7.108-14.727a15.823,15.823,0,0,1,4-2.259,17.193,17.193,0,0,1,8.129-1.074c2.214.259,6.177,1.146,7.846,4.187a4.837,4.837,0,0,1-.638,5.647,4.154,4.154,0,0,1-3.03,1.3,6.874,6.874,0,0,1-1.944-.345l-.048-.014c-.091-.026-.184-.053-.278-.078a8.688,8.688,0,0,0-2.967-.324,5.339,5.339,0,0,0-.874.136,5.269,5.269,0,0,0-2.749,2.127,4.344,4.344,0,0,0-.818,2.918,2.743,2.743,0,0,0,1.752,2.311,3.686,3.686,0,0,0,1.217.2,11.9,11.9,0,0,0,3.7-.92l.529-.188a15.171,15.171,0,0,1,5.035-1.047c.169,0,.337,0,.5.013a8.174,8.174,0,0,1,4.478,1.632,9.9,9.9,0,0,1,3.687,9.137c-.942,6.476-7.343,10.693-13.18,11.51A20.762,20.762,0,0,1,558.32,148.048Zm0-1.461h0a19.319,19.319,0,0,0,2.67-.185c5.3-.742,11.1-4.509,11.936-10.274a8.4,8.4,0,0,0-3.117-7.757,6.716,6.716,0,0,0-3.68-1.343c-.138-.007-.28-.011-.423-.011a13.871,13.871,0,0,0-4.55.964l-.523.186a12.87,12.87,0,0,1-4.19,1,5.121,5.121,0,0,1-1.692-.279,4.21,4.21,0,0,1-2.728-3.523,5.818,5.818,0,0,1,1.07-3.923,6.674,6.674,0,0,1,3.59-2.708,6.787,6.787,0,0,1,1.112-.176,10.13,10.13,0,0,1,3.466.369c.1.027.2.056.3.085l.052.015a5.513,5.513,0,0,0,1.537.287,2.708,2.708,0,0,0,1.994-.868,3.353,3.353,0,0,0,.392-3.913c-1.354-2.466-4.8-3.213-6.735-3.439a15.727,15.727,0,0,0-7.427.983,14.361,14.361,0,0,0-3.629,2.049c-3.848,3.009-6.235,7.986-6.549,13.657a18.173,18.173,0,0,0,5.925,14.935A17.267,17.267,0,0,0,558.319,146.587Z" transform="translate(-539.707 -109.54)" fill="#3c3c3b"/>
    </g>
    <g id="Raggruppa_275" data-name="Raggruppa 275" transform="translate(202.264 51.548)">
      <path id="Tracciato_2525" data-name="Tracciato 2525" d="M743.354,98.471a20.208,20.208,0,0,1-7.362-1.277,20.829,20.829,0,0,1-7.1-4.706,22.715,22.715,0,0,1-3.173-4,22.427,22.427,0,0,1-3.33-13.126,19.309,19.309,0,0,1,5.39-12.454,20.77,20.77,0,0,1,10.459-6.079,14.431,14.431,0,0,1,2.832-.28,12.6,12.6,0,0,1,9.123,3.644,11.358,11.358,0,0,1,2.957,9.472,9.2,9.2,0,0,1-4.808,6.836,23.505,23.505,0,0,1-4.657,1.711c-.671.193-1.363.392-2.015.613a3.211,3.211,0,0,0-2.075,1.839,4.35,4.35,0,0,0,.426,3.608,5.972,5.972,0,0,0,3.251,2.7,8.247,8.247,0,0,0,2.786.429,21.483,21.483,0,0,0,2.762-.222l.308-.042a13.186,13.186,0,0,1,1.827-.162,6.114,6.114,0,0,1,1.163.1,4.544,4.544,0,0,1,2.972,2.1,4.716,4.716,0,0,1,.571,3.731,5.642,5.642,0,0,1-2.377,3.1,17.159,17.159,0,0,1-7.879,2.389C744.711,98.445,744.021,98.471,743.354,98.471Z" transform="translate(-721.622 -55.817)" fill="#3c3c3b"/>
      <path id="Tracciato_2526" data-name="Tracciato 2526" d="M739.085,94.933a20.933,20.933,0,0,1-7.628-1.327,21.564,21.564,0,0,1-7.349-4.871,23.444,23.444,0,0,1-3.276-4.13,23.168,23.168,0,0,1-3.439-13.558,20.04,20.04,0,0,1,5.6-12.923,21.492,21.492,0,0,1,10.835-6.282,15.172,15.172,0,0,1,2.976-.294,13.329,13.329,0,0,1,9.651,3.87,12.1,12.1,0,0,1,3.151,10.093,9.911,9.911,0,0,1-5.186,7.366,24.078,24.078,0,0,1-4.8,1.767c-.664.191-1.348.388-1.985.6a2.506,2.506,0,0,0-1.629,1.414,3.631,3.631,0,0,0,.388,2.993,5.234,5.234,0,0,0,2.853,2.357,7.532,7.532,0,0,0,2.542.388,20.784,20.784,0,0,0,2.666-.216l.305-.041a13.737,13.737,0,0,1,1.926-.169,6.844,6.844,0,0,1,1.3.118,5.276,5.276,0,0,1,3.455,2.431,5.447,5.447,0,0,1,.654,4.312,6.368,6.368,0,0,1-2.675,3.51,17.887,17.887,0,0,1-8.231,2.511C740.478,94.906,739.769,94.933,739.085,94.933ZM736.8,53.009a13.715,13.715,0,0,0-2.688.266,20.05,20.05,0,0,0-10.083,5.876,18.581,18.581,0,0,0-5.18,11.985,21.693,21.693,0,0,0,3.22,12.7,22,22,0,0,0,3.071,3.872,20.092,20.092,0,0,0,6.844,4.541,19.486,19.486,0,0,0,7.1,1.227c.648,0,1.321-.025,2-.076a16.43,16.43,0,0,0,7.528-2.268,4.915,4.915,0,0,0,2.079-2.687,3.982,3.982,0,0,0-.488-3.15,3.812,3.812,0,0,0-2.488-1.766,5.409,5.409,0,0,0-1.026-.091,12.594,12.594,0,0,0-1.728.155l-.309.042a22.16,22.16,0,0,1-2.86.229,8.959,8.959,0,0,1-3.03-.472,6.709,6.709,0,0,1-3.649-3.037,5.069,5.069,0,0,1-.463-4.223,3.917,3.917,0,0,1,2.521-2.265c.67-.227,1.37-.428,2.047-.623a22.944,22.944,0,0,0,4.516-1.654,8.48,8.48,0,0,0,4.43-6.307,10.613,10.613,0,0,0-2.764-8.851A11.865,11.865,0,0,0,736.8,53.009Z" transform="translate(-717.352 -51.548)" fill="#3c3c3b"/>
    </g>
    <g id="Raggruppa_276" data-name="Raggruppa 276" transform="translate(202.813 53.88)">
      <path id="Tracciato_2527" data-name="Tracciato 2527" d="M747.116,114.426a20.208,20.208,0,0,1-7.362-1.277,20.831,20.831,0,0,1-7.1-4.706,22.718,22.718,0,0,1-3.173-4,22.431,22.431,0,0,1-3.33-13.126,19.31,19.31,0,0,1,5.39-12.454A20.771,20.771,0,0,1,742,72.783a14.433,14.433,0,0,1,2.832-.28,12.6,12.6,0,0,1,9.123,3.644,11.358,11.358,0,0,1,2.957,9.472,9.2,9.2,0,0,1-4.808,6.837,23.509,23.509,0,0,1-4.657,1.711c-.671.193-1.363.392-2.015.613a3.211,3.211,0,0,0-2.075,1.839,4.349,4.349,0,0,0,.426,3.608,5.971,5.971,0,0,0,3.251,2.7,8.245,8.245,0,0,0,2.786.429,21.457,21.457,0,0,0,2.762-.222l.308-.042a13.167,13.167,0,0,1,1.827-.162,6.118,6.118,0,0,1,1.163.1,4.544,4.544,0,0,1,2.972,2.1,4.715,4.715,0,0,1,.571,3.731,5.641,5.641,0,0,1-2.377,3.1,17.158,17.158,0,0,1-7.879,2.389C748.474,114.4,747.783,114.426,747.116,114.426Z" transform="translate(-725.384 -71.772)" fill="#3c3c3b"/>
      <path id="Tracciato_2528" data-name="Tracciato 2528" d="M742.847,110.888a20.936,20.936,0,0,1-7.628-1.327,21.569,21.569,0,0,1-7.349-4.871,23.44,23.44,0,0,1-3.275-4.13A23.165,23.165,0,0,1,721.156,87a20.038,20.038,0,0,1,5.6-12.923A21.49,21.49,0,0,1,737.591,67.8a15.167,15.167,0,0,1,2.975-.294,13.328,13.328,0,0,1,9.651,3.87,12.1,12.1,0,0,1,3.151,10.093,9.911,9.911,0,0,1-5.187,7.366,24.062,24.062,0,0,1-4.8,1.767c-.664.191-1.348.388-1.985.6a2.506,2.506,0,0,0-1.629,1.414,3.633,3.633,0,0,0,.388,2.993,5.234,5.234,0,0,0,2.853,2.357,7.53,7.53,0,0,0,2.542.388,20.81,20.81,0,0,0,2.666-.216l.305-.042a13.738,13.738,0,0,1,1.926-.169,6.849,6.849,0,0,1,1.3.117,5.276,5.276,0,0,1,3.455,2.431,5.447,5.447,0,0,1,.655,4.312,6.367,6.367,0,0,1-2.675,3.51,17.887,17.887,0,0,1-8.231,2.511C744.241,110.861,743.532,110.888,742.847,110.888Zm-2.281-41.923a13.714,13.714,0,0,0-2.688.266A20.048,20.048,0,0,0,727.8,75.106a18.579,18.579,0,0,0-5.18,11.985,21.692,21.692,0,0,0,3.22,12.7,21.989,21.989,0,0,0,3.071,3.872,20.094,20.094,0,0,0,6.844,4.541,19.488,19.488,0,0,0,7.1,1.227c.648,0,1.321-.026,2-.076a16.429,16.429,0,0,0,7.527-2.268,4.914,4.914,0,0,0,2.079-2.687,3.983,3.983,0,0,0-.488-3.15,3.812,3.812,0,0,0-2.488-1.766,5.41,5.41,0,0,0-1.026-.091,12.593,12.593,0,0,0-1.728.155l-.309.042a22.162,22.162,0,0,1-2.86.229,8.962,8.962,0,0,1-3.03-.471,6.71,6.71,0,0,1-3.649-3.038,5.07,5.07,0,0,1-.464-4.223,3.918,3.918,0,0,1,2.521-2.265c.67-.227,1.37-.428,2.047-.623a22.937,22.937,0,0,0,4.516-1.654,8.481,8.481,0,0,0,4.43-6.307,10.613,10.613,0,0,0-2.764-8.851A11.865,11.865,0,0,0,740.566,68.964Z" transform="translate(-721.115 -67.503)" fill="#3c3c3b"/>
    </g>
    <path id="Tracciato_2529" data-name="Tracciato 2529" d="M748.195,102.483a19.388,19.388,0,0,1-7.061-1.221,20,20,0,0,1-6.811-4.519,21.894,21.894,0,0,1-3.057-3.855,21.6,21.6,0,0,1-3.205-12.638,18.481,18.481,0,0,1,5.152-11.922,19.953,19.953,0,0,1,10.032-5.849,13.61,13.61,0,0,1,2.669-.264,11.767,11.767,0,0,1,8.525,3.389,10.514,10.514,0,0,1,2.738,8.768,8.383,8.383,0,0,1-4.38,6.236,22.866,22.866,0,0,1-4.5,1.646c-.679.2-1.381.4-2.051.624a4.013,4.013,0,0,0-2.581,2.322,5.166,5.166,0,0,0,.469,4.306,6.808,6.808,0,0,0,3.7,3.083,9.052,9.052,0,0,0,3.063.477,22.2,22.2,0,0,0,2.87-.229l.312-.042a12.516,12.516,0,0,1,1.715-.155,5.306,5.306,0,0,1,1.007.09,3.715,3.715,0,0,1,2.424,1.721,3.883,3.883,0,0,1,.477,3.072,4.816,4.816,0,0,1-2.039,2.631,16.336,16.336,0,0,1-7.481,2.252C749.511,102.458,748.841,102.483,748.195,102.483Z" transform="translate(-524.199 -9.11)" fill="#fff"/>
    <path id="Tracciato_2530" data-name="Tracciato 2530" d="M567.429,155.585a17.169,17.169,0,0,1-11.13-3.841,18.075,18.075,0,0,1-5.891-14.855c.313-5.642,2.686-10.594,6.511-13.586a14.264,14.264,0,0,1,3.6-2.035,15.738,15.738,0,0,1,5.67-1.076,14.8,14.8,0,0,1,1.71.1c1.915.224,5.328.961,6.66,3.389a3.253,3.253,0,0,1-.376,3.8,2.615,2.615,0,0,1-1.925.839,5.449,5.449,0,0,1-1.512-.283c-.116-.033-.234-.068-.353-.1a10.846,10.846,0,0,0-2.809-.4c-.233,0-.465.009-.69.028a6.9,6.9,0,0,0-1.128.179,6.775,6.775,0,0,0-3.646,2.747,5.917,5.917,0,0,0-1.087,3.99,4.308,4.308,0,0,0,2.793,3.6,5.218,5.218,0,0,0,1.724.284,12.946,12.946,0,0,0,4.224-1.011l.521-.185a13.787,13.787,0,0,1,4.518-.958c.14,0,.28,0,.417.011a6.617,6.617,0,0,1,3.626,1.323,8.3,8.3,0,0,1,3.079,7.664c-.831,5.716-6.592,9.454-11.853,10.191a19.212,19.212,0,0,1-2.657.185Z" transform="translate(-372.513 -58.613)" fill="#fff"/>
    <path id="Tracciato_2531" data-name="Tracciato 2531" d="M933.235,141.172a13.406,13.406,0,0,0-6.694-3.264,15.778,15.778,0,0,0-7.742,1.015c-5.953,2.172-11.174,6.875-12.952,12.958a15.458,15.458,0,0,0,2.56,13.644c2.394,3.029,7.149,3.883,10.8,4.449A16.825,16.825,0,0,0,938.55,156.3,16.72,16.72,0,0,0,933.235,141.172ZM927.208,153.9a7.814,7.814,0,0,1-4.336,1.815,7.589,7.589,0,0,1-3.3-.071,5.76,5.76,0,0,1-2.734-1.942,3.979,3.979,0,0,1-1.12-3.128c.258-1.389,1.641-2.4,3-3.188,2.763-1.6,7.77-2.879,9.62.658a3.366,3.366,0,0,1,.3,1.5A5.781,5.781,0,0,1,927.208,153.9Z" transform="translate(-675.526 -73.621)" fill="#fff"/>
    <path id="Tracciato_2532" data-name="Tracciato 2532" d="M927.153,174.194a17.037,17.037,0,0,1-2.934-.2c-3.863-.6-8.161-1.462-10.281-4.144a14.723,14.723,0,0,1-2.415-12.9c1.589-5.436,6.356-10.192,12.441-12.412a16.836,16.836,0,0,1,5.38-1.1,11.333,11.333,0,0,1,1.95.126,12.51,12.51,0,0,1,6.275,3.069A15.877,15.877,0,0,1,942.615,161a16.315,16.315,0,0,1-9.517,11.948,15.951,15.951,0,0,1-5.944,1.244Zm1.758-24.4a12.6,12.6,0,0,0-5.732,1.712c-1.409.814-3.068,1.976-3.4,3.754a4.713,4.713,0,0,0,1.3,3.807,6.519,6.519,0,0,0,3.135,2.208,6.592,6.592,0,0,0,2.038.25,12.17,12.17,0,0,0,1.63-.154,8.4,8.4,0,0,0,4.794-2.046,6.519,6.519,0,0,0,1.665-4.959,4.131,4.131,0,0,0-.391-1.867A5.16,5.16,0,0,0,928.911,149.8Z" transform="translate(-680.407 -78.462)" fill="url(#linear-gradient)"/>
    <g id="Raggruppa_277" data-name="Raggruppa 277" transform="translate(114.109 59.872)">
      <path id="Tracciato_2533" data-name="Tracciato 2533" d="M156.582,154.795a14.721,14.721,0,0,1-2.74.075c-.283-.02-.563-.05-.832-.089a4.411,4.411,0,0,1-3.324-1.773,9.032,9.032,0,0,1-1.2-2.914l-.049-.181c-.519-1.912-.93-3.422-2.294-4.658-.717-.649-1.459-1.313-2.207-1.975-.1-.092-.21-.189-.315-.287a3.328,3.328,0,0,0-1.213-.849.516.516,0,0,0-.193-.017l-.021,0a.85.85,0,0,0-.509.382,1.454,1.454,0,0,0-.265,1.02,2.563,2.563,0,0,0,.315.7l.069.122a13.7,13.7,0,0,1,1.685,5.529,3.68,3.68,0,0,1-.357,2.2,3.21,3.21,0,0,1-1.043,1.054,9.349,9.349,0,0,1-3.777,1.3c-.19.031-.379.059-.568.087-.124.018-.248.035-.373.05a3.11,3.11,0,0,1-2.259-.436,7.978,7.978,0,0,1-2.355-3.907s-.093-.258-.133-.364c-.652-1.769-1.235-3.585-1.733-5.4a56.36,56.36,0,0,1-1.361-6.367c-.042-.273-.081-.545-.119-.816a10.752,10.752,0,0,0-1.208-4.291c-.052-.085-.109-.173-.177-.271a20.4,20.4,0,0,0-1.956-2.294c-.249-.264-.506-.537-.756-.813a30.917,30.917,0,0,1-3.855-5.271c-.106-.183-.237-.4-.38-.629-1.264-2.062-2.279-3.893-1.881-5.421l.076-.294.172-.25a2.675,2.675,0,0,1,1.957-.974l.39-.061c.068-.011.137-.023.2-.037.591-.127,1.2-.242,1.8-.34.58-.095,1.174-.177,1.766-.244l.018,0a38.379,38.379,0,0,1,9.518.139,2.182,2.182,0,0,0,.452.033l.044-.005a2.428,2.428,0,0,0,.421-.133,40.512,40.512,0,0,1,7.789-2.356c.324-.053.647-.1.96-.133.531-.061,1.044-.1,1.568-.112a17.218,17.218,0,0,1,8.2,1.735,10.007,10.007,0,0,1,5.6,9.967v.032a12.466,12.466,0,0,1-.842,4.407,9.573,9.573,0,0,1-5.143,5.4,8.076,8.076,0,0,1-1.753.495q-.192.031-.383.053a8.481,8.481,0,0,1-8.072-4,5.859,5.859,0,0,1-.47-5.161,6.131,6.131,0,0,1,1.647-2.457,5.679,5.679,0,0,0-1.142,1.081,5.99,5.99,0,0,0,.265,7.653,12.722,12.722,0,0,0,7.187,3.5c.218.042.439.081.662.12l.316.054.03.005a6.942,6.942,0,0,1,6.047,4.186l.041.067a35.111,35.111,0,0,1,3.976,9.416,3.361,3.361,0,0,1-.029,2.2,3.486,3.486,0,0,1-2.625,1.909c-.889.21-1.617.359-2.292.469C157.224,154.713,156.9,154.759,156.582,154.795Zm-31.608-33.77c.085.221.172.441.273.656a21.06,21.06,0,0,0,2.208,3.683,19.606,19.606,0,0,0,1.37,1.649,2.373,2.373,0,0,0,.253.222c.078-.22.143-.458.211-.7.053-.194.109-.394.173-.6a22.665,22.665,0,0,1,1.937-4.111l.034-.063q.139-.25.276-.5a5.124,5.124,0,0,0,.325-.664,3.288,3.288,0,0,0-.525-.073l-.03,0c-.077-.006-.15-.012-.218-.019a21.455,21.455,0,0,0-3.421-.138c-.186.011-.371.027-.55.048-.152.017-.3.038-.448.062A7.345,7.345,0,0,0,124.974,121.025Z" transform="translate(-118.382 -112.781)" fill="#3c3c3b"/>
      <path id="Tracciato_2534" data-name="Tracciato 2534" d="M150.5,151.362c-.335,0-.664-.012-.987-.035-.3-.022-.6-.053-.883-.094a5.1,5.1,0,0,1-3.818-2.076,9.623,9.623,0,0,1-1.306-3.142l-.049-.182c-.507-1.867-.874-3.216-2.079-4.308-.709-.641-1.449-1.3-2.2-1.969-.108-.1-.217-.2-.327-.3a4.026,4.026,0,0,0-.809-.642q-.016.018-.033.043a.768.768,0,0,0-.146.465,2.609,2.609,0,0,0,.234.474l.07.125a14.429,14.429,0,0,1,1.776,5.826,4.408,4.408,0,0,1-.453,2.622,3.906,3.906,0,0,1-1.267,1.294,10.012,10.012,0,0,1-4.067,1.416c-.193.031-.387.061-.579.089-.132.019-.264.038-.4.053a3.832,3.832,0,0,1-2.772-.572,8.529,8.529,0,0,1-2.61-4.247h0l-.006-.017-.125-.344c-.659-1.787-1.249-3.624-1.752-5.459a57.1,57.1,0,0,1-1.379-6.45c-.042-.275-.081-.55-.12-.825a10.081,10.081,0,0,0-1.108-4.013c-.045-.074-.1-.151-.154-.236a19.826,19.826,0,0,0-1.887-2.209l-.02-.022c-.244-.26-.5-.528-.745-.8a31.646,31.646,0,0,1-3.946-5.4c-.1-.178-.231-.386-.371-.614-1.353-2.207-2.435-4.181-1.965-5.987l.109-.419.246-.356a3.371,3.371,0,0,1,2.441-1.28l.394-.062c.052-.009.109-.018.161-.03.6-.129,1.218-.246,1.839-.347.592-.1,1.2-.18,1.8-.249l.018,0a39.116,39.116,0,0,1,9.7.141,1.74,1.74,0,0,0,.279.03h.007a2.855,2.855,0,0,0,.274-.094,41.072,41.072,0,0,1,7.929-2.393c.339-.055.674-.1.995-.138.551-.063,1.085-.1,1.63-.116a17.934,17.934,0,0,1,8.55,1.813,11.97,11.97,0,0,1,5.549,6.422,11.727,11.727,0,0,1,.455,4.21V121a13.193,13.193,0,0,1-.894,4.662,10.3,10.3,0,0,1-5.547,5.811q-.268.109-.542.2a7.464,7.464,0,0,1,2.367.943,9.6,9.6,0,0,1,2.856,3.33l.04.065a35.842,35.842,0,0,1,4.059,9.614,4.075,4.075,0,0,1-.059,2.66,4.208,4.208,0,0,1-3.134,2.347c-.906.214-1.651.367-2.343.479-.345.056-.684.1-1.009.14A16.615,16.615,0,0,1,150.5,151.362Zm-12.51-14.238a1.273,1.273,0,0,1,.333.045,3.878,3.878,0,0,1,1.518,1.017c.1.094.2.187.3.275.756.669,1.5,1.336,2.214,1.981,1.523,1.38,1.98,3.061,2.509,5.008l.049.182a8.449,8.449,0,0,0,1.091,2.685,3.722,3.722,0,0,0,2.829,1.47c.252.036.515.064.781.083a14.013,14.013,0,0,0,2.6-.072h0c.3-.035.618-.078.94-.131.657-.107,1.369-.253,2.241-.459a2.793,2.793,0,0,0,2.115-1.472,2.651,2.651,0,0,0,0-1.746,34.385,34.385,0,0,0-3.893-9.221l-.04-.065a6.255,6.255,0,0,0-5.546-3.846l-.031-.005-.319-.055c-.225-.04-.45-.079-.671-.122a13.429,13.429,0,0,1-7.594-3.734,6.728,6.728,0,0,1-.293-8.6,6.408,6.408,0,0,1,1.289-1.22l.913,1.138a5.434,5.434,0,0,0-1.449,2.166,5.134,5.134,0,0,0,.4,4.522,7.746,7.746,0,0,0,7.37,3.665q.174-.02.349-.048a7.345,7.345,0,0,0,1.594-.45,8.84,8.84,0,0,0,4.74-5,11.738,11.738,0,0,0,.791-4.15v-.035a10.649,10.649,0,0,0-.362-3.67,10.476,10.476,0,0,0-4.838-5.63,16.5,16.5,0,0,0-7.852-1.658c-.5.014-1,.049-1.505.108-.3.034-.61.077-.926.128A39.96,39.96,0,0,0,132,112.533a2.987,2.987,0,0,1-.561.17l-.072.009a2.619,2.619,0,0,1-.636-.034,37.634,37.634,0,0,0-9.341-.137l-.018,0c-.579.066-1.162.146-1.731.239-.6.1-1.192.21-1.768.334-.076.016-.156.031-.236.044l-.394.062c-.827.135-1.226.316-1.47.668l-.1.143-.044.169c-.325,1.248.665,3.009,1.8,4.856.147.239.28.457.389.644a30.192,30.192,0,0,0,3.764,5.147c.24.264.488.528.727.782l.02.022a20.883,20.883,0,0,1,2.025,2.38c.075.108.14.208.2.305a11.453,11.453,0,0,1,1.307,4.569c.038.269.076.538.118.808A55.641,55.641,0,0,0,127.325,140c.492,1.795,1.069,3.592,1.714,5.34l.12.328.014.04a7.448,7.448,0,0,0,2.1,3.564,2.418,2.418,0,0,0,1.747.3c.117-.013.233-.029.349-.046.185-.027.371-.055.557-.085a8.691,8.691,0,0,0,3.486-1.186,2.515,2.515,0,0,0,.818-.813,2.988,2.988,0,0,0,.262-1.772,12.956,12.956,0,0,0-1.595-5.231l-.068-.122a3.088,3.088,0,0,1-.4-.917,2.164,2.164,0,0,1,.384-1.576,1.549,1.549,0,0,1,.99-.683l.056-.008A1.162,1.162,0,0,1,137.994,137.124Zm-12.84-12.955-.8-.631a3.072,3.072,0,0,1-.334-.3,20.332,20.332,0,0,1-1.422-1.711,21.778,21.778,0,0,1-2.286-3.812c-.115-.246-.211-.492-.293-.7l-.248-.642.626-.286a8.083,8.083,0,0,1,2.055-.606c.153-.025.316-.047.482-.067.191-.022.389-.039.589-.051a22.073,22.073,0,0,1,3.538.14c.064.007.13.012.2.017l.03,0a4.041,4.041,0,0,1,.643.092l.8.194-.285.77a5.692,5.692,0,0,1-.371.765c-.091.165-.184.333-.277.5l-.033.06a22.123,22.123,0,0,0-1.88,3.981c-.06.187-.113.38-.164.567-.07.253-.141.511-.227.754Zm-3.489-7a20.311,20.311,0,0,0,2.1,3.49c.238.318.469.61.7.882l.03-.1a23.206,23.206,0,0,1,1.994-4.244l.033-.061.114-.206a19.454,19.454,0,0,0-3.021-.108c-.175.011-.347.026-.513.044-.142.016-.281.036-.412.057A7.267,7.267,0,0,0,121.666,117.165Z" transform="translate(-114.109 -108.51)" fill="#3c3c3b"/>
    </g>
    <g id="Raggruppa_278" data-name="Raggruppa 278" transform="translate(292.976 61.759)">
      <path id="Tracciato_2535" data-name="Tracciato 2535" d="M1371.526,168.27c-.437-.063-.86-.154-1.179-.227a39.3,39.3,0,0,1-7.557-2.56,3.819,3.819,0,0,1-1.6-1.167,4.038,4.038,0,0,1-.48-3.011l.007-.056a18.354,18.354,0,0,0-.423-6.665,51.84,51.84,0,0,1-3.218,5.739,2.276,2.276,0,0,1-1.235,1.039l-.015,0a2.051,2.051,0,0,1-.875.048c-.082-.012-.163-.027-.243-.043a30.45,30.45,0,0,1-9.408-3.6,4.016,4.016,0,0,1-2.159-2.586,4.113,4.113,0,0,1,.524-2.455c.683-1.444,1.348-2.931,1.974-4.422,1.136-2.707,2.177-5.5,3.094-8.3.236-.718.463-1.437.676-2.137.045-.145.094-.283.142-.417a3.063,3.063,0,0,0,.18-.616,3.663,3.663,0,0,0-.794-1.091,6.541,6.541,0,0,1-1.141-1.56c-1.141-2.409.25-5.03,1-6.438a2.406,2.406,0,0,1,1.143-1.174,2.2,2.2,0,0,1,1.2-.124c.063.009.126.019.187.03a74.277,74.277,0,0,1,10.225,2.584,7.177,7.177,0,0,1,2.252,1.084,6.968,6.968,0,0,1,1.642,2.06q.929,1.59,1.727,3.256a22.68,22.68,0,0,1,1.569-5l.281-.628.681-.1a51.949,51.949,0,0,1,14.322-.073,39.388,39.388,0,0,1,5.9,1.3c1.84.561,2.133,1.664,2.143,2.272a2.636,2.636,0,0,1-.663,1.654c-3.079,4-6.266,8.146-10.557,11.171l-.022.016a2.174,2.174,0,0,0-.265.2,2.3,2.3,0,0,0-.122.385l-.9,3.424a16.728,16.728,0,0,0-.4,2.388c-.019.155-.037.312-.056.472-.293,2.4-.526,4.813-.694,7.178l-.011.154a14.75,14.75,0,0,1-.727,4.242,5.776,5.776,0,0,1-3.561,3.617,5.849,5.849,0,0,1-2.566.125Zm5.9-33.555a3.022,3.022,0,0,0,.194.481l.029.063a21.467,21.467,0,0,1,1.471,4.594,11.1,11.1,0,0,0,1.7-1.242,27.365,27.365,0,0,0,2.747-2.564,2.279,2.279,0,0,0,.355-.478.385.385,0,0,0,.039-.13c-.018-.028-.114-.142-.49-.273a7.1,7.1,0,0,0-.851-.218l-.142-.03c-.333-.072-.675-.133-1.015-.182a14.821,14.821,0,0,0-4.027-.022Z" transform="translate(-1342.368 -125.691)" fill="#3c3c3b"/>
      <path id="Tracciato_2536" data-name="Tracciato 2536" d="M1368.34,164.812a8.3,8.3,0,0,1-1.135-.083h-.007l-.045-.006-.244-.038c-.373-.062-.72-.137-.994-.2a40.023,40.023,0,0,1-7.7-2.608,4.49,4.49,0,0,1-1.89-1.4,4.7,4.7,0,0,1-.616-3.53l.007-.056a17.554,17.554,0,0,0-.015-4.331c-.708,1.331-1.473,2.633-2.287,3.89a2.979,2.979,0,0,1-1.638,1.341l-.015,0a2.776,2.776,0,0,1-1.19.072c-.1-.014-.19-.031-.283-.05a31.186,31.186,0,0,1-9.635-3.689,4.736,4.736,0,0,1-2.509-3.093,4.8,4.8,0,0,1,.583-2.89c.679-1.435,1.339-2.913,1.961-4.393,1.129-2.689,2.163-5.462,3.073-8.24.234-.711.46-1.425.672-2.122.049-.16.1-.305.151-.445.022-.059.068-.186.1-.293a6.84,6.84,0,0,0-.568-.683,7.23,7.23,0,0,1-1.259-1.738c-1.3-2.74.206-5.571,1.013-7.092a3.108,3.108,0,0,1,1.5-1.5,2.94,2.94,0,0,1,1.592-.175c.07.01.14.022.209.034a75.091,75.091,0,0,1,10.33,2.61,7.8,7.8,0,0,1,2.475,1.2,7.582,7.582,0,0,1,1.82,2.264q.435.745.845,1.512a23.284,23.284,0,0,1,1.154-3.187l.446-1,1.083-.151a52.68,52.68,0,0,1,14.526-.073,40.1,40.1,0,0,1,6.007,1.322c2.368.721,2.65,2.309,2.661,2.958a3.338,3.338,0,0,1-.815,2.113c-3.113,4.047-6.333,8.232-10.715,11.322l-.022.016-.066.047c-.014.052-.028.1-.035.131l-.9,3.425a16.2,16.2,0,0,0-.378,2.288c-.018.156-.037.314-.057.476-.292,2.388-.524,4.791-.69,7.142l-.011.154a15.312,15.312,0,0,1-.771,4.447,6.507,6.507,0,0,1-4.035,4.06A5.836,5.836,0,0,1,1368.34,164.812Zm-.742-1.506a4.942,4.942,0,0,0,2.016-.132A5.047,5.047,0,0,0,1372.7,160a14.174,14.174,0,0,0,.682-4.034l.011-.156c.169-2.375.4-4.8.7-7.216.02-.159.038-.315.056-.469a17.32,17.32,0,0,1,.416-2.489l.9-3.424a2.006,2.006,0,0,1,.215-.6l.054-.072a2.023,2.023,0,0,1,.405-.333l.022-.016c4.2-2.961,7.351-7.057,10.4-11.019a1.944,1.944,0,0,0,.512-1.2c-.012-.712-.575-1.261-1.626-1.581a38.656,38.656,0,0,0-5.788-1.273,51.2,51.2,0,0,0-14.117.073l-.281.039-.116.259a21.958,21.958,0,0,0-1.518,4.841l-.417,2.184-.96-2.005c-.521-1.088-1.092-2.165-1.7-3.2a6.336,6.336,0,0,0-1.462-1.854,6.48,6.48,0,0,0-2.031-.965,73.612,73.612,0,0,0-10.124-2.559c-.052-.009-.107-.018-.162-.026a1.484,1.484,0,0,0-.811.072,1.707,1.707,0,0,0-.786.845c-.687,1.3-1.966,3.7-.982,5.783a5.887,5.887,0,0,0,1.023,1.383,4.061,4.061,0,0,1,.95,1.365l.035.113,0,.119a2.914,2.914,0,0,1-.223.847c-.047.129-.093.257-.131.383-.215.706-.444,1.43-.681,2.151-.922,2.815-1.971,5.625-3.114,8.35-.631,1.5-1.3,3-1.988,4.452a3.457,3.457,0,0,0-.464,2.02,3.334,3.334,0,0,0,1.809,2.079,29.722,29.722,0,0,0,9.182,3.516c.065.013.133.026.2.036a1.337,1.337,0,0,0,.569-.027l.007,0a1.576,1.576,0,0,0,.832-.735,51.176,51.176,0,0,0,3.173-5.659l.874-1.822.493,1.96a19,19,0,0,1,.44,6.93l-.007.056a3.406,3.406,0,0,0,.345,2.492,3.134,3.134,0,0,0,1.316.934,38.579,38.579,0,0,0,7.417,2.512c.292.067.676.15,1.069.208h.25Zm6.738-26.595-.2-.98a20.752,20.752,0,0,0-1.419-4.437l-.028-.061a3.55,3.55,0,0,1-.241-.615l-.189-.766.818-.135a15.361,15.361,0,0,1,2.138-.132,15.538,15.538,0,0,1,2.083.156c.358.051.717.115,1.066.191l.14.03a7.655,7.655,0,0,1,.94.243,1.638,1.638,0,0,1,.857.557l.137.205-.015.246a1.121,1.121,0,0,1-.107.395,2.83,2.83,0,0,1-.47.653,27.989,27.989,0,0,1-2.819,2.635,11.882,11.882,0,0,1-1.815,1.322Zm-.121-5.637a21.656,21.656,0,0,1,1.109,3.318c.262-.2.512-.4.751-.607a29.164,29.164,0,0,0,2.505-2.307c-.129-.031-.26-.059-.384-.085l-.143-.031c-.317-.068-.642-.126-.966-.173a14.086,14.086,0,0,0-1.887-.141C1374.872,131.045,1374.543,131.053,1374.215,131.074Z" transform="translate(-1338.099 -121.419)" fill="#3c3c3b"/>
    </g>
    <path id="Tracciato_2537" data-name="Tracciato 2537" d="M1378.962,174.164c-.393-.056-.783-.141-1.078-.208a38.015,38.015,0,0,1-7.316-2.478,2.679,2.679,0,0,1-1.118-.771,2.976,2.976,0,0,1-.249-2.128l.007-.058a19.6,19.6,0,0,0-1.512-10.209,50.555,50.555,0,0,1-4.406,8.462c-.061.094-.112.167-.157.225l-.3.384-.481-.077c-.042-.007-.084-.015-.126-.023l-.014,0a29.213,29.213,0,0,1-9.023-3.456,2.822,2.822,0,0,1-1.564-1.724,3.013,3.013,0,0,1,.423-1.715c.691-1.46,1.362-2.964,2-4.471,1.15-2.74,2.2-5.563,3.129-8.391.239-.727.469-1.454.685-2.162.032-.106.072-.216.112-.331l.01-.026a2.314,2.314,0,0,0,.215-1.347,4.3,4.3,0,0,0-1.075-1.614,5.518,5.518,0,0,1-.939-1.258c-.769-1.624.012-3.519.971-5.325a2.711,2.711,0,0,1,.2-.333l.266-.36.448.026c.036,0,.088.007.159.017l.148.024a73.039,73.039,0,0,1,10.05,2.54,5.97,5.97,0,0,1,1.873.881,5.831,5.831,0,0,1,1.339,1.713,43.649,43.649,0,0,1,3.663,8.046l.007.017v-.011a21.553,21.553,0,0,1,1.643-9.484l.184-.439.472-.062a50.558,50.558,0,0,1,13.507-.011,38.121,38.121,0,0,1,5.711,1.256,2.213,2.213,0,0,1,1.076.611l.286.354-.146.431a2.031,2.031,0,0,1-.358.582c-3.024,3.931-6.152,8-10.289,10.914l-.023.016a1.724,1.724,0,0,0-.872,1.29l-.9,3.424a17.914,17.914,0,0,0-.429,2.558q-.027.23-.056.466c-.3,2.417-.531,4.854-.7,7.241l-.011.155a13.576,13.576,0,0,1-.651,3.893,4.539,4.539,0,0,1-2.754,2.863A4.661,4.661,0,0,1,1378.962,174.164Zm9.885-33.2a15.726,15.726,0,0,0-4.273-.024.817.817,0,0,0-.805.875,2.565,2.565,0,0,0,.289.879l.029.062a21.04,21.04,0,0,1,1.5,4.867.73.73,0,0,0,.146.379.313.313,0,0,0,.177.082.933.933,0,0,0,.5-.111,10.84,10.84,0,0,0,2.253-1.556,28.566,28.566,0,0,0,2.835-2.651,3,3,0,0,0,.5-.7,1.079,1.079,0,0,0,.084-.778,1.521,1.521,0,0,0-1.055-.855,7.955,7.955,0,0,0-.962-.249l-.135-.029C1389.571,141.086,1389.208,141.021,1388.847,140.969Z" transform="translate(-1056.652 -71.057)" fill="#fff"/>
    <path id="Tracciato_2538" data-name="Tracciato 2538" d="M160.24,159.2c-.384.007-.764,0-1.127-.028-.26-.018-.519-.046-.77-.082a3.541,3.541,0,0,1-2.723-1.4,8.208,8.208,0,0,1-1.068-2.637l-.049-.18c-.536-1.971-1-3.673-2.555-5.084-.723-.654-1.468-1.321-2.214-1.982-.1-.085-.193-.174-.29-.263l-.015-.014a3.977,3.977,0,0,0-1.577-1.049,1.426,1.426,0,0,0-.4-.051,1.329,1.329,0,0,0-.19.017,1.7,1.7,0,0,0-1.094.749,2.326,2.326,0,0,0-.41,1.7,3.257,3.257,0,0,0,.413.967l.068.121a12.8,12.8,0,0,1,1.575,5.167,2.893,2.893,0,0,1-.24,1.679,2.375,2.375,0,0,1-.77.762,8.553,8.553,0,0,1-3.424,1.161c-.185.03-.37.058-.554.085a6.448,6.448,0,0,1-.805.079,1.865,1.865,0,0,1-1.172-.3,7.337,7.337,0,0,1-2.044-3.492s-.1-.268-.134-.369c-.644-1.745-1.219-3.537-1.709-5.327a55.562,55.562,0,0,1-1.339-6.266c-.041-.268-.079-.536-.117-.8a11.751,11.751,0,0,0-1.33-4.635c-.06-.1-.127-.2-.2-.313a21.042,21.042,0,0,0-2.042-2.4c-.25-.265-.5-.53-.743-.8a30.034,30.034,0,0,1-3.744-5.12c-.11-.189-.244-.407-.391-.648-1.069-1.744-2.088-3.546-1.779-4.733l.037-.141.083-.12c.215-.312.586-.475,1.37-.6l.385-.06c.088-.014.171-.029.247-.045.582-.125,1.176-.237,1.763-.333s1.162-.174,1.741-.24c1.091-.124,2.213-.2,3.333-.219a38.609,38.609,0,0,1,5.964.355,3.5,3.5,0,0,0,.536.045c.043,0,.087,0,.132-.008l.094-.012a3.093,3.093,0,0,0,.588-.177,39.881,39.881,0,0,1,7.62-2.311,17.97,17.97,0,0,1,2.41-.234l.155,0a16.3,16.3,0,0,1,7.621,1.644,10.382,10.382,0,0,1,4.958,12.215,9.65,9.65,0,0,1-5.28,5.979,7.162,7.162,0,0,1-2.577.533,7.622,7.622,0,0,1-6.542-3.637,5.168,5.168,0,0,1,2.755-7.484,6.258,6.258,0,0,1,.894-.212,7.518,7.518,0,0,1,1.058-.093,10.508,10.508,0,0,1,1.9.149c.073.012.138.02.195.025a3.018,3.018,0,0,0-1.426-1.143,4.532,4.532,0,0,0-1.871-.353c-.116,0-.232.009-.347.019-.146.013-.292.032-.435.055a6.724,6.724,0,0,0-4.136,2.417,6.887,6.887,0,0,0,.3,8.8,13.581,13.581,0,0,0,7.683,3.784c.221.042.446.082.673.122l.352.061a8.2,8.2,0,0,1,3.09.963,8.336,8.336,0,0,1,2.346,2.807l.041.068a34.218,34.218,0,0,1,3.875,9.177,2.555,2.555,0,0,1,.007,1.648,2.656,2.656,0,0,1-2.006,1.377A22.125,22.125,0,0,1,160.24,159.2Zm-26.676-34.556c-.2,0-.388.012-.572.023-.373.023-.738.063-1.084.119a8.018,8.018,0,0,0-2.374.753.623.623,0,0,0-.338.325.636.636,0,0,0,.053.4l0,.01c.027.067.055.141.083.215.1.252.2.5.314.757a21.974,21.974,0,0,0,2.3,3.84,20.512,20.512,0,0,0,1.433,1.724,4.194,4.194,0,0,0,.51.435l.025.02.147.114a.725.725,0,0,0,.437.191.391.391,0,0,0,.056-.005.416.416,0,0,0,.294-.233,6.143,6.143,0,0,0,.5-1.376c.055-.2.105-.381.163-.561a22,22,0,0,1,1.867-3.949l.047-.085q.133-.24.265-.479a5.486,5.486,0,0,0,.4-.844,1.045,1.045,0,0,0,.072-.4c-.021-.438-.26-.723-1.385-.807l-.025,0c-.07-.005-.136-.01-.2-.017A25.3,25.3,0,0,0,133.564,124.646Z" transform="translate(-9.48 -58.099)" fill="#fff"/>
    <path id="Tracciato_2539" data-name="Tracciato 2539" d="M1383.918,178.328c-.362-.052-.731-.132-1.011-.2a37.208,37.208,0,0,1-7.156-2.424,2.073,2.073,0,0,1-.794-.507,2.451,2.451,0,0,1-.1-1.541l.007-.057a20.418,20.418,0,0,0-1.576-10.641l-.789-1.8-.738,1.818a49.72,49.72,0,0,1-4.334,8.323c-.047.073-.085.128-.113.164-.036-.006-.071-.013-.106-.02a28.387,28.387,0,0,1-8.769-3.358c-.5-.3-1.089-.7-1.166-1.148a2.425,2.425,0,0,1,.355-1.222c.7-1.47,1.372-2.986,2.011-4.5,1.158-2.76,2.219-5.6,3.153-8.454.24-.732.472-1.465.69-2.179.031-.1.07-.208.109-.318a3.015,3.015,0,0,0,.233-1.848,4.991,4.991,0,0,0-1.259-1.948,4.892,4.892,0,0,1-.805-1.056c-.613-1.294.1-2.967.953-4.583a2.273,2.273,0,0,1,.134-.229c.021,0,.049,0,.09.01l.123.02a72.176,72.176,0,0,1,9.933,2.51,5.326,5.326,0,0,1,1.62.745,5.17,5.17,0,0,1,1.137,1.482,42.778,42.778,0,0,1,3.6,7.913l1.692,4.209-.079-4.52a20.682,20.682,0,0,1,1.578-9.133,49.663,49.663,0,0,1,13.283-.012,37.277,37.277,0,0,1,5.586,1.228,1.508,1.508,0,0,1,.674.339,2.049,2.049,0,0,1-.228.339c-2.989,3.885-6.078,7.9-10.112,10.745l-.022.016a2.51,2.51,0,0,0-1.2,1.759l-.9,3.423a18.547,18.547,0,0,0-.45,2.671c-.018.152-.036.306-.055.463-.3,2.432-.534,4.882-.7,7.283l-.011.156a12.979,12.979,0,0,1-.6,3.659,3.717,3.717,0,0,1-2.216,2.36,3.877,3.877,0,0,1-1.678.059Zm9.885-33.2a16.544,16.544,0,0,0-4.5-.025,1.643,1.643,0,0,0-1.523,1.752,3.284,3.284,0,0,0,.365,1.173l.028.061a20.171,20.171,0,0,1,1.438,4.674,1.457,1.457,0,0,0,.38.815,1.139,1.139,0,0,0,.64.311,1.744,1.744,0,0,0,.976-.185,11.6,11.6,0,0,0,2.43-1.671,29.179,29.179,0,0,0,2.917-2.731,3.743,3.743,0,0,0,.632-.9,1.9,1.9,0,0,0,.121-1.38,2.282,2.282,0,0,0-1.571-1.384,8.587,8.587,0,0,0-1.063-.277l-.134-.029C1394.566,145.255,1394.183,145.187,1393.8,145.133Z" transform="translate(-1061.492 -76.041)" fill="url(#linear-gradient-2)"/>
    <path id="Tracciato_2540" data-name="Tracciato 2540" d="M397.467,170.836a2.019,2.019,0,0,1-.407-.041l-.052-.009c-.2-.026-.4-.053-.6-.083a32.777,32.777,0,0,1-5.869-1.426,2.267,2.267,0,0,1-1.361-.908,2.311,2.311,0,0,1-.188-1.04,73.653,73.653,0,0,1,.353-8.648,91.962,91.962,0,0,1,2.98-15.538c.355-1.274.707-2.519,1.12-3.733.045-.134.086-.272.127-.409a2.3,2.3,0,0,1,.89-1.488,7.955,7.955,0,0,1,2.84-.689c.3-.037.586-.072.842-.113a39.523,39.523,0,0,1,4.1-.445c.147-.008.3-.015.445-.018a3.414,3.414,0,0,1,1.267.167,4.558,4.558,0,0,1,1.458,1.03,28.947,28.947,0,0,1,4.774,5.245,22.479,22.479,0,0,1,2.314,5.662c.148.481.3.973.453,1.444a138.415,138.415,0,0,1,4.207,16.142,2.257,2.257,0,0,1-.763,1.958,13.938,13.938,0,0,1-7.155,1.994c-.481.009-.964,0-1.438-.036-.219-.015-.448-.036-.72-.067l-.074-.006a1.349,1.349,0,0,1-.879-.357,2.505,2.505,0,0,1-.624-1.793c0-.066-.007-.13-.012-.19a14.566,14.566,0,0,1-.023-1.854h0a7.513,7.513,0,0,1-2.816.6,7.638,7.638,0,0,1-3.724-.873h0a24.165,24.165,0,0,1-.057,2.53c-.031.418-.074.842-.128,1.26-.005.04-.009.082-.014.126a1.97,1.97,0,0,1-.5,1.293,1.334,1.334,0,0,1-.117.1A1.084,1.084,0,0,1,397.467,170.836ZM401.937,157a1.931,1.931,0,0,0-1.181.46,3.89,3.89,0,0,0-1.145,2.632,1.016,1.016,0,0,0,1.006,1.454,23.384,23.384,0,0,0,2.619.1c.269-.005.543-.015.815-.03a.782.782,0,0,0,.649-.26.761.761,0,0,0,.047-.5,7.257,7.257,0,0,0-.6-2.2A2.6,2.6,0,0,0,401.937,157Z" transform="translate(-234.701 -72.321)" fill="#fff"/>
    <path id="Tracciato_2541" data-name="Tracciato 2541" d="M402.5,174.763a.5.5,0,0,1-.045.039c-.122.094-.362.02-.5,0q-.294-.037-.587-.081a31.885,31.885,0,0,1-5.72-1.39c-.248-.085-.765-.263-.9-.514a1.761,1.761,0,0,1-.091-.667,72.821,72.821,0,0,1,.349-8.55,91.143,91.143,0,0,1,2.954-15.4c.351-1.262.7-2.493,1.107-3.689.049-.144.093-.293.137-.441.157-.53.266-.862.515-1.008a7.634,7.634,0,0,1,2.522-.581c.31-.038.6-.074.873-.118a38.684,38.684,0,0,1,4.015-.436c.138-.008.276-.015.415-.017a2.653,2.653,0,0,1,.967.117,3.9,3.9,0,0,1,1.179.859,28.316,28.316,0,0,1,4.643,5.089,21.892,21.892,0,0,1,2.217,5.455c.148.481.3.978.457,1.456a137.611,137.611,0,0,1,4.182,16.045,1.53,1.53,0,0,1-.4,1.1,13.107,13.107,0,0,1-6.725,1.863q-.682.013-1.364-.034c-.229-.016-.458-.038-.686-.064-.2-.022-.325,0-.482-.148-.361-.334-.338-.987-.373-1.439a13.69,13.69,0,0,1-.022-1.748l.068-1.325-1.22.521a6.688,6.688,0,0,1-2.507.529,6.806,6.806,0,0,1-3.319-.777l-1.26-.669.043,1.426a23.209,23.209,0,0,1-.054,2.443q-.046.61-.124,1.216A1.577,1.577,0,0,1,402.5,174.763Zm4.261-13.746a2.765,2.765,0,0,0-1.678.638,4.616,4.616,0,0,0-1.453,3.177,2.142,2.142,0,0,0,.571,1.978,2.107,2.107,0,0,0,1.18.407,24.2,24.2,0,0,0,2.712.1c.28-.005.564-.016.843-.031a1.565,1.565,0,0,0,1.312-.655,1.534,1.534,0,0,0,.161-1.047,8.035,8.035,0,0,0-.68-2.451A3.408,3.408,0,0,0,406.763,161.017Z" transform="translate(-239.543 -77.162)" fill="url(#linear-gradient-3)"/>
    <path id="Tracciato_2542" data-name="Tracciato 2542" d="M164,163.188q-.357-.026-.712-.076a2.768,2.768,0,0,1-2.161-1.06,7.6,7.6,0,0,1-.956-2.411l-.04-.147c-.546-2.009-1.062-3.907-2.8-5.48-.727-.658-1.475-1.327-2.221-1.988-.1-.087-.195-.176-.292-.266a4.68,4.68,0,0,0-1.92-1.239,2.212,2.212,0,0,0-.945-.053,2.521,2.521,0,0,0-1.64,1.091,3.137,3.137,0,0,0-.546,2.325,3.959,3.959,0,0,0,.505,1.218l.067.12a11.962,11.962,0,0,1,1.472,4.83,2.209,2.209,0,0,1-.132,1.2,1.623,1.623,0,0,1-.516.49,7.818,7.818,0,0,1-3.094,1.031c-.181.03-.362.057-.542.083a2.13,2.13,0,0,1-1.369-.074,6.8,6.8,0,0,1-1.754-3.105c-.046-.128-.091-.253-.136-.374-.635-1.722-1.2-3.492-1.688-5.259a54.7,54.7,0,0,1-1.319-6.172c-.041-.267-.079-.533-.116-.8a12.379,12.379,0,0,0-1.443-4.946c-.069-.113-.144-.228-.23-.352a21.683,21.683,0,0,0-2.12-2.5c-.246-.261-.491-.522-.732-.787a29.2,29.2,0,0,1-3.641-4.979c-.113-.194-.25-.419-.4-.665-.674-1.1-1.929-3.146-1.683-4.091.03-.043.17-.149.82-.255l.385-.061c.1-.017.2-.034.286-.053.568-.122,1.147-.231,1.723-.325s1.134-.17,1.7-.235a36.652,36.652,0,0,1,9.091.134,3.519,3.519,0,0,0,.868.04c.041,0,.089-.01.138-.018a3.84,3.84,0,0,0,.747-.219,39.226,39.226,0,0,1,7.462-2.269,17.186,17.186,0,0,1,2.3-.223,15.494,15.494,0,0,1,7.381,1.553,9.52,9.52,0,0,1,4.541,11.225,8.852,8.852,0,0,1-4.8,5.462,6.362,6.362,0,0,1-1.38.39,6.7,6.7,0,0,1-6.723-3.166,4.341,4.341,0,0,1,2.3-6.256,5.435,5.435,0,0,1,.776-.184,8.4,8.4,0,0,1,2.69.056c.5.083,1.161.105,1.191-.6.041-.944-1.209-1.771-1.96-2.1a5.428,5.428,0,0,0-2.623-.4c-.163.015-.329.036-.492.063a7.562,7.562,0,0,0-4.651,2.719A7.723,7.723,0,0,0,153,143.9a14.382,14.382,0,0,0,8.145,4.044c.225.043.454.083.684.124a8.709,8.709,0,0,1,3.137.9,7.882,7.882,0,0,1,2.127,2.608,33.47,33.47,0,0,1,3.781,8.955,1.826,1.826,0,0,1,.041,1.13c-.218.54-.861.747-1.428.881A18.372,18.372,0,0,1,164,163.188Zm-27.4-34.377a8.85,8.85,0,0,0-2.619.834,1.289,1.289,0,0,0-.684,1.748l.008.022c.028.069.054.138.08.208.1.264.209.539.338.816a22.785,22.785,0,0,0,2.39,3.986,21.31,21.31,0,0,0,1.492,1.794,4.926,4.926,0,0,0,.611.526c.055.042.108.083.161.125a1.441,1.441,0,0,0,1.141.354,1.237,1.237,0,0,0,.884-.647,6.871,6.871,0,0,0,.575-1.559c.052-.187.1-.363.153-.53a21.418,21.418,0,0,1,1.8-3.8q.157-.283.314-.567a6.176,6.176,0,0,0,.458-.972,1.854,1.854,0,0,0,.117-.718c-.069-1.431-1.582-1.544-2.151-1.587-.071-.005-.138-.01-.2-.017a22.972,22.972,0,0,0-3.7-.144C137.371,128.707,136.979,128.751,136.6,128.811Z" transform="translate(-14.31 -62.94)" fill="url(#linear-gradient-4)"/>
    <path id="Tracciato_2543" data-name="Tracciato 2543" d="M1129.318,139.391a1.769,1.769,0,0,1-.62.069c-.885,0-2.5-.26-3.219.366a.168.168,0,0,0-.065.114.22.22,0,0,0,.056.128,3.769,3.769,0,0,0,.866.7,7.369,7.369,0,0,1,2.524,2.844c.164.374.326.806-.139.963a27.138,27.138,0,0,1-3.1.52c-1.139.23-2.268.5-3.4.772-2.173.532-4.342,1.1-6.539,1.524a30.784,30.784,0,0,1-8.176.6,26.077,26.077,0,0,1-9.794-2.944c-2.905-1.477-5.459-3.55-8.271-5.191-.1-.055-.192-.116-.288-.173-.759-.46-1.516-.918-2.289-1.355-.446-.251-.9-.5-1.356-.726a4.539,4.539,0,0,1-.835-.386c-.389-.3-.1-.654.182-.955a7.363,7.363,0,0,1,3.308-1.869,3.761,3.761,0,0,0,1.048-.38.219.219,0,0,0,.093-.1.166.166,0,0,0-.023-.128c-.4-.685-2.258-1.164-2.927-1.393a1.793,1.793,0,0,1-.562-.267c-.378-.308-.087-.773.144-1.092,1.782-2.464,4.5-3.881,7.159-5.155.012-.645.061-1.29.113-1.93.324-4.1.675-8.27,2.11-12.125a2.88,2.88,0,0,1,1.05-1.553,1.217,1.217,0,0,1,1.071-.018c1.814.675,4.335,4.139,5.06,5.08a29.794,29.794,0,0,1,3.864,6.625,18.218,18.218,0,0,1,6.8,1.136,29.741,29.741,0,0,1,5.8-5.012c.993-.654,4.5-3.111,6.436-3.16a1.213,1.213,0,0,1,1.007.365,2.868,2.868,0,0,1,.489,1.81c.106,4.112-.918,8.168-1.943,12.154-.16.62-.324,1.247-.52,1.86,2.1,2.069,4.208,4.292,5.095,7.2C1129.65,138.687,1129.774,139.221,1129.318,139.391Z" transform="translate(-828.574 -50.026)" fill="#fff"/>
    <path id="Tracciato_2544" data-name="Tracciato 2544" d="M1135,143.392c-.821-2.7-2.777-4.78-4.883-6.853l-.362-.357.155-.484c.183-.574.337-1.163.507-1.816.948-3.683,2.02-7.857,1.917-11.927a2.225,2.225,0,0,0-.291-1.294.529.529,0,0,0-.355-.074c-1.536.038-4.674,2.137-5.706,2.826l-.3.2a28.87,28.87,0,0,0-5.643,4.873l-.375.419-.528-.194a17.364,17.364,0,0,0-6.446-1.085l-.612.013-.219-.519a28.939,28.939,0,0,0-3.755-6.44l-.218-.285c-.751-.987-3.037-3.99-4.477-4.526a.808.808,0,0,0-.283-.062.159.159,0,0,0-.076.016,2.238,2.238,0,0,0-.7,1.13c-1.423,3.819-1.762,8.114-2.062,11.9-.05.637-.1,1.26-.111,1.879l-.011.51-.459.221c-2.665,1.276-5.194,2.612-6.845,4.893l-.047.067.063.022c.1.035.229.075.377.121,1.318.414,2.539.851,3,1.643a.972.972,0,0,1,.1.78,1.018,1.018,0,0,1-.418.546l-.017.011a3.613,3.613,0,0,1-1.088.432l-.183.05a6.722,6.722,0,0,0-2.834,1.535,3.4,3.4,0,0,1,.32.137c.421.21.864.447,1.394.746.8.451,1.6.938,2.307,1.364l.107.065.176.1c1.2.7,2.373,1.492,3.5,2.253a45.477,45.477,0,0,0,4.726,2.915,25.013,25.013,0,0,0,9.481,2.857c.723.055,1.478.075,2.244.06a33.248,33.248,0,0,0,5.712-.653c1.737-.335,3.495-.771,5.194-1.192q.652-.161,1.306-.322c1.018-.249,2.221-.536,3.427-.78.422-.086.863-.136,1.289-.186a12.681,12.681,0,0,0,1.335-.2,6.614,6.614,0,0,0-2.216-2.446l-.16-.108a3.689,3.689,0,0,1-.89-.766,1.024,1.024,0,0,1-.227-.643l0-.035a.99.99,0,0,1,.348-.692,3.288,3.288,0,0,1,2.1-.621c.374-.007.744.012,1.072.029.222.012.432.022.6.022h.067C1135.018,143.447,1135.01,143.421,1135,143.392Zm-14.338-3.094a1.517,1.517,0,0,1-.936-1.867c.153-.921.822-1.574,1.493-1.463a1.515,1.515,0,0,1,.937,1.867C1122,139.754,1121.334,140.409,1120.662,140.3Zm-14.705-4.166c.153-.921.821-1.574,1.493-1.463a1.516,1.516,0,0,1,.937,1.867c-.153.919-.822,1.574-1.493,1.463A1.516,1.516,0,0,1,1105.957,136.131Zm12.817,9.383a1.8,1.8,0,0,1-.682.919,3.427,3.427,0,0,1-1,.506,3.312,3.312,0,0,1-2.281-.137,4.158,4.158,0,0,1-1.78-1.5,4.407,4.407,0,0,1-.281-.486,4.267,4.267,0,0,1-2.6,1.209,3.3,3.3,0,0,1-2.2-.615,3.383,3.383,0,0,1-.78-.8,1.782,1.782,0,0,1-.344-1.085.157.157,0,0,1,.314,0v0a1.4,1.4,0,0,0,.39.808,2.907,2.907,0,0,0,.742.582,2.558,2.558,0,0,0,1.761.245,3.138,3.138,0,0,0,1.537-.853,2.78,2.78,0,0,0,.714-1.17,7.731,7.731,0,0,1-1.161-2.206.661.661,0,0,1,.535-.848,6.222,6.222,0,0,1,3.621.623.662.662,0,0,1,.249.988,7.373,7.373,0,0,1-1.809,1.764,2.786,2.786,0,0,0,.3,1.257,3.171,3.171,0,0,0,1.177,1.3,2.566,2.566,0,0,0,1.741.336,2.9,2.9,0,0,0,.889-.308,1.412,1.412,0,0,0,.628-.635l0,0a.166.166,0,0,1,.312.109Z" transform="translate(-834.832 -54.866)" fill="url(#linear-gradient-5)"/>
    <path id="Tracciato_2545" data-name="Tracciato 2545" d="M1173.037,161.044c.366-.031.773.722.946.964q.474.665.881,1.374a16.5,16.5,0,0,1,1.336,2.975c.193.575.1.882-.5.983a15.81,15.81,0,0,0-2.046.485c-.367.113-1.365.731-1.576.21a1.076,1.076,0,0,1-.054-.39,20.94,20.94,0,0,1,.763-6.272C1172.853,161.148,1172.938,161.052,1173.037,161.044Z" transform="translate(-903.315 -93.494)" fill="#fff"/>
    <path id="Tracciato_2546" data-name="Tracciato 2546" d="M1312.25,186.51c-.327-.167-.989.375-1.241.534q-.691.436-1.336.938a16.515,16.515,0,0,0-2.363,2.248c-.4.46-.431.777.09,1.1a15.835,15.835,0,0,1,1.71,1.223c.3.243.987,1.194,1.379.791a1.08,1.08,0,0,0,.2-.341,20.954,20.954,0,0,0,1.669-6.094C1312.38,186.677,1312.338,186.555,1312.25,186.51Z" transform="translate(-1018.578 -115.213)" fill="#fff"/>
    <path id="Tracciato_2547" data-name="Tracciato 2547" d="M583.211,143.049a5.75,5.75,0,0,0-3.173-1.159,12.165,12.165,0,0,0-4.617.9c-2.309.811-4.567,1.754-7.013.914a5.109,5.109,0,0,1-3.347-4.291,6.728,6.728,0,0,1,1.23-4.561,7.652,7.652,0,0,1,4.123-3.077,7.771,7.771,0,0,1,1.263-.2,11.073,11.073,0,0,1,3.784.4c1.094.3,2.028.724,2.987-.24a2.427,2.427,0,0,0,.237-2.814c-1.078-1.963-3.981-2.725-6.03-2.965a14.65,14.65,0,0,0-6.982.926,13.465,13.465,0,0,0-3.4,1.916c-3.927,3.071-5.924,8.1-6.194,12.979-.289,5.224,1.531,10.734,5.6,14.177a16.934,16.934,0,0,0,13.138,3.468c4.956-.694,10.38-4.2,11.149-9.49A7.461,7.461,0,0,0,583.211,143.049Z" transform="translate(-377.36 -63.453)" fill="url(#linear-gradient-6)"/>
    <path id="Tracciato_2548" data-name="Tracciato 2548" d="M739.751,101a21.078,21.078,0,0,1-2.941-3.709c-4.517-7.235-4.311-17.315,1.833-23.539a19.161,19.161,0,0,1,9.605-5.619,11.454,11.454,0,0,1,10.432,2.885c3.769,3.937,3.659,10.991-1.432,13.7a41.853,41.853,0,0,1-6.425,2.216c-3.435,1.161-4.272,4.678-2.575,7.807a7.625,7.625,0,0,0,4.154,3.469,13.353,13.353,0,0,0,6.318.288,8.731,8.731,0,0,1,2.77-.115,3.082,3.082,0,0,1,2.258,3.758,4,4,0,0,1-1.7,2.164,15.184,15.184,0,0,1-7.082,2.115,19.915,19.915,0,0,1-8.689-1.09A19.063,19.063,0,0,1,739.751,101Z" transform="translate(-529.041 -13.951)" fill="url(#linear-gradient-7)"/>
    <g id="Raggruppa_286" data-name="Raggruppa 286" transform="translate(135.958 108.663)">
      <g id="Raggruppa_279" data-name="Raggruppa 279" transform="translate(0 1.362)">
        <path id="Tracciato_2549" data-name="Tracciato 2549" d="M363.225,462.438l.1-2.313,13.586-6.479-16.822,4.319-8.242-3.433L357.806,460l-3.665.88,4.106.778.268,1.009-5.448.38-1.331-1.907-1.026-1.47-.755,1.587-1.7,3.573-6.146-5.966-2.281-2.214,1.011,2.984,1.183,3.491-78.379.935,79.408.674.907.009-.265-.887-.492-1.647,4.672,4.869.9.933.612-1.177,1.6-3.069.655,1.008.323.5.63-.021,6.586-.215,2.632,9.321,1.181-9.681,7.325-1.117Z" transform="translate(-263.643 -453.363)" fill="#fff"/>
        <path id="Tracciato_2550" data-name="Tracciato 2550" d="M376.895,451.992l-13.587,6.479-.1,2.313,7.086,1.117-7.325,1.117-1.181,9.681-2.632-9.321-6.586.215-.63.02-.323-.5-.655-1.008-1.6,3.069-.612,1.177-.9-.933-4.672-4.869.492,1.647.265.888-.907-.009-79.408-.674L342,461.468l-1.183-3.491-1.011-2.984,2.28,2.214,6.146,5.966,1.7-3.573.755-1.587,1.026,1.47,1.331,1.907,5.448-.38L358.226,460l-4.106-.778,3.665-.88-5.954-5.466,8.242,3.433,16.822-4.319m-.073-.283L360.1,456l-8.151-3.4-1.535-.639,1.225,1.125,5.55,5.094-3.131.752-1.324.318,1.337.254,3.925.744.13.489-4.93.344-1.236-1.771-1.026-1.47-.288-.412-.216.454-.755,1.587-1.523,3.2L342.294,457l-2.28-2.214-.869-.844.389,1.147,1.011,2.984,1.054,3.11-77.976.93v.585l79.407.674.907.009.4,0-.113-.38-.265-.888-.146-.488,3.835,4,.9.933.282.294.188-.362.612-1.177,1.364-2.624.381.588.323.5.09.138.165-.005.63-.02,6.358-.208,2.57,9.1.4,1.4.176-1.444,1.154-9.461,7.106-1.084,1.863-.284-1.861-.293-6.827-1.077.084-1.876,13.428-6.4-.2-.547Z" transform="translate(-263.622 -451.709)" fill="#fff"/>
      </g>
      <g id="Raggruppa_280" data-name="Raggruppa 280" transform="translate(104.79 5.656)">
        <path id="Tracciato_2551" data-name="Tracciato 2551" d="M986.67,499.28l6.248-7.058,10.587,8.044-11.311-15.1Z" transform="translate(-985.798 -484.569)" fill="#fff"/>
        <path id="Tracciato_2552" data-name="Tracciato 2552" d="M987.1,481.685l11.312,15.1-10.587-8.044-6.248,7.058,5.523-14.115m-.081-.6-.191.489L981.3,495.694l-.6,1.532,1.09-1.232,6.068-6.855,10.371,7.88,1.662,1.263-1.251-1.671-11.312-15.1-.315-.42Z" transform="translate(-980.705 -481.09)" fill="#fff"/>
      </g>
      <g id="Raggruppa_281" data-name="Raggruppa 281" transform="translate(170.143 3.069)">
        <path id="Tracciato_2553" data-name="Tracciato 2553" d="M1455.733,470.222l-8.695,4.559-9.316-3.74,8.372,7.492-.834.779,2.142,8.2,2.12-8.252-1.065-.817Z" transform="translate(-1436.289 -469.224)" fill="#fff"/>
        <path id="Tracciato_2554" data-name="Tracciato 2554" d="M1447.359,464.389l-7.276,8.217,1.065.817-2.12,8.252-2.142-8.2.834-.779-8.372-7.492,9.316,3.74,8.695-4.56m1.275-1-1.41.74-8.576,4.5-9.191-3.689-1.542-.619,1.238,1.108,8.134,7.279-.6.561-.128.119.044.169,2.142,8.2.285,1.091.281-1.092,2.12-8.252.048-.187-.153-.118-.817-.627,7.069-7.982,1.055-1.192Z" transform="translate(-1427.915 -463.391)" fill="#fff"/>
      </g>
      <g id="Raggruppa_282" data-name="Raggruppa 282" transform="translate(119.63 4.373)">
        <path id="Tracciato_2555" data-name="Tracciato 2555" d="M1084.482,476.435l.6,11.1,2.819-5.18,8.521,7.262.3-11.9-2.168,6.142Z" transform="translate(-1084.157 -475.832)" fill="#fff"/>
        <path id="Tracciato_2556" data-name="Tracciato 2556" d="M1082.581,472.915l10.078,7.42,2.167-6.142-.3,11.9L1086,478.831l-2.819,5.18-.6-11.1m-.325-.6.033.618.6,11.1.056,1.029.493-.905,2.646-4.863,8.247,7.029.466.4.016-.612.3-11.9.047-1.848-.615,1.743-2.036,5.77-9.761-7.186-.5-.367Z" transform="translate(-1082.256 -472.312)" fill="#fff"/>
      </g>
      <g id="Raggruppa_283" data-name="Raggruppa 283" transform="translate(155.021)">
        <path id="Tracciato_2557" data-name="Tracciato 2557" d="M1351.9,450.131l-8.458,6.037-5.6.462,6.267,1.377-.085,3.858,2.048-2.98,3.626,2.171-8.561,11.327,13.843-11.889-7.146-4.1Z" transform="translate(-1335.886 -448.999)" fill="#fff"/>
        <path id="Tracciato_2558" data-name="Tracciato 2558" d="M1340.454,443.52l-4.065,6.267,7.145,4.1-13.843,11.889,8.561-11.327-3.626-2.171-2.048,2.98.084-3.858-6.267-1.377,5.6-.462,8.458-6.037m1.083-1.132-1.252.894-8.393,5.99-5.521.456-1.936.16,1.9.417,6.032,1.326-.079,3.617-.022.979.555-.807,1.893-2.753,3.111,1.863-8.365,11.067-1.641,2.171,2.064-1.773,13.843-11.889.314-.269-.359-.206-6.878-3.943,3.9-6.008.837-1.291Z" transform="translate(-1324.435 -442.388)" fill="#fff"/>
      </g>
      <g id="Raggruppa_284" data-name="Raggruppa 284" transform="translate(127.236 1.132)">
        <path id="Tracciato_2559" data-name="Tracciato 2559" d="M1159.428,460.134l6.535-4.677-8.582,2.553-9.92-2.146,7.353,4.006-1.787,2.5,2.561-1.05,2.6,14.869.674-14.606,3.208.971Z" transform="translate(-1145.537 -454.679)" fill="#fff"/>
        <path id="Tracciato_2560" data-name="Tracciato 2560" d="M1154.724,450.914l-6.535,4.677,2.642,2.421-3.208-.971-.674,14.607-2.6-14.869-2.561,1.05,1.787-2.5-7.353-4.006,9.92,2.146,8.582-2.553m1.588-.777-1.672.5-8.51,2.531-9.847-2.13-1.985-.43,1.784.972,7.064,3.848-1.595,2.233-.59.825.938-.385,2.225-.912,2.537,14.512.458,2.616.122-2.653.656-14.232,2.849.862,1.228.372-.946-.867-2.376-2.177,6.242-4.468,1.418-1.015Z" transform="translate(-1134.298 -450.137)" fill="#fff"/>
      </g>
      <g id="Raggruppa_285" data-name="Raggruppa 285" transform="translate(142.02 3.741)">
        <path id="Tracciato_2561" data-name="Tracciato 2561" d="M1243.395,489.143l8.776-9.988,7.526,5.675-8.219-12.736Z" transform="translate(-1242.236 -471.495)" fill="#fff"/>
        <path id="Tracciato_2562" data-name="Tracciato 2562" d="M1244.709,468.591l8.218,12.736-7.526-5.675-8.777,9.988,8.084-17.049m-.039-.6-.225.474-8.084,17.049-.895,1.887,1.378-1.568,8.6-9.784,7.31,5.512,1.313.99-.892-1.382-8.219-12.736-.285-.441Z" transform="translate(-1235.466 -467.991)" fill="#fff"/>
      </g>
    </g>
    <g id="Raggruppa_294" data-name="Raggruppa 294" transform="translate(134.731 107.118)">
      <g id="Raggruppa_287" data-name="Raggruppa 287" transform="translate(0 1.362)">
        <path id="Tracciato_2563" data-name="Tracciato 2563" d="M354.829,451.868l.1-2.313,13.586-6.479L351.7,447.4l-8.242-3.433,5.954,5.465-3.665.88,4.106.778.268,1.009-5.448.38-2.357-3.377-2.453,5.16-8.426-8.18,1.88,6.479-78.064.931,80.315.683-.757-2.534,5.568,5.8,2.207-4.246.977,1.505,7.216-.236,2.632,9.321,1.181-9.681,7.325-1.117Z" transform="translate(-255.247 -442.794)" fill="#009ee2"/>
        <path id="Tracciato_2564" data-name="Tracciato 2564" d="M368.5,441.422,354.913,447.9l-.1,2.313,7.086,1.117-7.325,1.117-1.181,9.681-2.632-9.321-7.217.236-.977-1.505-2.207,4.246-5.567-5.8.757,2.534-80.315-.683,78.064-.931-1.88-6.479,8.427,8.18,2.453-5.16,2.357,3.377,5.448-.38-.268-1.009-4.106-.778,3.665-.88-5.954-5.465,8.242,3.433,16.822-4.319m-.073-.283L351.7,445.434l-8.152-3.4-1.535-.639,1.225,1.125,5.55,5.094-3.131.752-1.324.318,1.337.254,3.925.744.13.489-4.93.344-2.262-3.241-.288-.412-.216.454-2.278,4.792-8.134-7.9-.792-.769.307,1.06,1.773,6.11-77.68.927v.585l80.315.683.4,0-.113-.379-.411-1.376,4.731,4.93.282.294.188-.362,1.976-3.8.7,1.085.09.138.165-.005,6.988-.228,2.57,9.1.4,1.4.176-1.443,1.154-9.461,7.106-1.084,1.863-.284-1.861-.294-6.827-1.077.084-1.876,13.428-6.4-.2-.547Z" transform="translate(-255.227 -441.139)" fill="#fff"/>
      </g>
      <g id="Raggruppa_288" data-name="Raggruppa 288" transform="translate(104.79 5.656)">
        <path id="Tracciato_2565" data-name="Tracciato 2565" d="M978.274,488.71l6.248-7.058,10.587,8.044-11.312-15.1Z" transform="translate(-977.402 -473.999)" fill="#009ee2"/>
        <path id="Tracciato_2566" data-name="Tracciato 2566" d="M978.7,471.116l11.312,15.1-10.587-8.044-6.248,7.058,5.523-14.115m-.081-.6-.191.489-5.523,14.115-.6,1.532,1.09-1.232,6.068-6.855,10.371,7.88,1.662,1.263-1.252-1.671-11.312-15.1-.315-.42Z" transform="translate(-972.31 -470.52)" fill="#fff"/>
      </g>
      <g id="Raggruppa_289" data-name="Raggruppa 289" transform="translate(170.143 3.069)">
        <path id="Tracciato_2567" data-name="Tracciato 2567" d="M1447.337,459.652l-8.7,4.559-9.316-3.74,8.372,7.492-.834.779,2.142,8.2,2.12-8.252-1.065-.817Z" transform="translate(-1427.893 -458.654)" fill="#009ee2"/>
        <path id="Tracciato_2568" data-name="Tracciato 2568" d="M1438.964,453.819l-7.276,8.217,1.066.817-2.12,8.252-2.142-8.2.834-.779-8.372-7.492,9.316,3.74,8.7-4.559m1.275-1-1.41.739-8.575,4.5-9.191-3.69-1.542-.619,1.238,1.108,8.134,7.278-.6.561-.127.119.044.169,2.142,8.2.285,1.091.281-1.092,2.12-8.252.048-.187-.153-.118-.817-.627,7.068-7.982,1.056-1.192Z" transform="translate(-1419.519 -452.821)" fill="#fff"/>
      </g>
      <g id="Raggruppa_290" data-name="Raggruppa 290" transform="translate(119.63 4.373)">
        <path id="Tracciato_2569" data-name="Tracciato 2569" d="M1076.086,465.865l.6,11.1,2.819-5.18,8.521,7.262.3-11.9-2.168,6.142Z" transform="translate(-1075.761 -465.263)" fill="#009ee2"/>
        <path id="Tracciato_2570" data-name="Tracciato 2570" d="M1074.185,462.344l10.078,7.42,2.167-6.142-.3,11.9-8.521-7.262-2.818,5.18-.6-11.1m-.325-.6.033.618.6,11.1.056,1.029.493-.906,2.647-4.863,8.247,7.029.466.4.016-.612.3-11.9.047-1.848-.615,1.743-2.036,5.77-9.761-7.186-.5-.367Z" transform="translate(-1073.86 -461.742)" fill="#fff"/>
      </g>
      <g id="Raggruppa_291" data-name="Raggruppa 291" transform="translate(155.021)">
        <path id="Tracciato_2571" data-name="Tracciato 2571" d="M1343.509,439.561l-8.458,6.037-5.6.462,6.267,1.377-.085,3.858,2.048-2.98,3.626,2.171-8.561,11.327,13.843-11.889-7.145-4.1Z" transform="translate(-1327.49 -438.43)" fill="#009ee2"/>
        <path id="Tracciato_2572" data-name="Tracciato 2572" d="M1332.058,432.949l-4.066,6.267,7.145,4.1L1321.295,455.2l8.561-11.327-3.626-2.171-2.048,2.98.085-3.858L1318,439.449l5.6-.463,8.458-6.037m1.082-1.132-1.252.894-8.393,5.99-5.521.456-1.936.16,1.9.417,6.032,1.326-.079,3.617-.022.979.555-.807,1.893-2.754,3.111,1.863-8.365,11.067-1.641,2.171,2.064-1.773,13.843-11.889.314-.27-.359-.206-6.878-3.943,3.9-6.008.837-1.291Z" transform="translate(-1316.039 -431.818)" fill="#fff"/>
      </g>
      <g id="Raggruppa_292" data-name="Raggruppa 292" transform="translate(127.235 1.133)">
        <path id="Tracciato_2573" data-name="Tracciato 2573" d="M1151.032,449.565l6.535-4.677-8.582,2.553-9.92-2.146,7.353,4.006-1.786,2.5,2.561-1.05,2.6,14.869.674-14.606,3.208.971Z" transform="translate(-1137.141 -444.11)" fill="#009ee2"/>
        <path id="Tracciato_2574" data-name="Tracciato 2574" d="M1146.328,440.345l-6.535,4.678,2.642,2.421-3.208-.971-.674,14.607-2.6-14.869-2.561,1.05,1.786-2.5-7.353-4.006,9.92,2.146,8.582-2.553m1.588-.777-1.672.5-8.51,2.532-9.847-2.13-1.985-.429,1.784.972,7.063,3.848-1.595,2.233-.589.825.938-.385,2.225-.912,2.537,14.512.458,2.616.122-2.653.656-14.232,2.849.862,1.228.372-.946-.867-2.376-2.177,6.242-4.468,1.418-1.015Z" transform="translate(-1125.902 -439.568)" fill="#fff"/>
      </g>
      <g id="Raggruppa_293" data-name="Raggruppa 293" transform="translate(142.02 3.741)">
        <path id="Tracciato_2575" data-name="Tracciato 2575" d="M1235,478.574l8.776-9.988,7.526,5.675-8.219-12.736Z" transform="translate(-1233.84 -460.925)" fill="#009ee2"/>
        <path id="Tracciato_2576" data-name="Tracciato 2576" d="M1236.313,458.021l8.219,12.736-7.526-5.675-8.776,9.988,8.084-17.049m-.039-.6-.225.474-8.084,17.049-.895,1.887,1.378-1.568,8.6-9.784,7.309,5.512,1.314.991-.892-1.382-8.218-12.736-.285-.441Z" transform="translate(-1227.07 -457.421)" fill="#fff"/>
      </g>
    </g>
    <path id="Tracciato_2577" data-name="Tracciato 2577" d="M796,272.9a.438.438,0,0,1-.375-.211,9.529,9.529,0,0,1-1.352-4.21l-.042-.556,4.125.676a12.642,12.642,0,0,1-1.157-3.42l-.1-.527.536.009c1.553.026,3.126-.006,4.674-.1a.438.438,0,1,1,.051.875c-1.388.081-2.8.117-4.192.1a11.773,11.773,0,0,0,1.382,3.408l.488.812-4.833-.793a8.657,8.657,0,0,0,1.166,3.262.438.438,0,0,1-.374.666Z" transform="translate(-580.735 -181.888)" fill="#fff"/>
    <path id="Tracciato_2578" data-name="Tracciato 2578" d="M746.8,180.219a.439.439,0,0,1-.431-.359c-.137-.743-.311-1.491-.479-2.215q-.077-.33-.153-.662a15.509,15.509,0,0,0-1.617,1.023l-.393.284-.243-.419a21.323,21.323,0,0,1-2.177-5.259,41.892,41.892,0,0,0-4.95,5.713l-.289.4-.364-.335a10.2,10.2,0,0,1-1.486-1.709,7.6,7.6,0,0,0-.833,2.914.438.438,0,0,1-.876-.043,9.125,9.125,0,0,1,1.291-3.959l.375-.666.385.66a9.328,9.328,0,0,0,1.383,1.815,42.783,42.783,0,0,1,5.311-5.948l.557-.518.168.742a20.468,20.468,0,0,0,2.027,5.336,16.352,16.352,0,0,1,1.836-1.077l.5-.253.12.552c.088.406.182.809.275,1.211.17.733.346,1.491.487,2.253a.438.438,0,0,1-.351.511A.451.451,0,0,1,746.8,180.219Z" transform="translate(-528.03 -101.943)" fill="#fff"/>
  </g>
</svg>
