<svg id="Raggruppa_2150" data-name="Raggruppa 2150" xmlns="http://www.w3.org/2000/svg" xmlns:xlink="http://www.w3.org/1999/xlink" width="217.766" height="172.392" viewBox="0 0 217.766 172.392">
  <defs>
    <clipPath id="clip-path">
      <rect id="Rettangolo_748" data-name="Rettangolo 748" width="217.766" height="172.392" fill="none"/>
    </clipPath>
    <clipPath id="clip-path-3">
      <rect id="Rettangolo_743" data-name="Rettangolo 743" width="45.892" height="52.243" transform="translate(58.1 24.401)" fill="none"/>
    </clipPath>
    <clipPath id="clip-path-4">
      <rect id="Rettangolo_745" data-name="Rettangolo 745" width="19.769" height="42.777" transform="translate(3.347 127.18)" fill="none"/>
    </clipPath>
    <clipPath id="clip-path-5">
      <rect id="Rettangolo_746" data-name="Rettangolo 746" width="15.423" height="44.308" transform="translate(8.613 126.805)" fill="none"/>
    </clipPath>
  </defs>
  <g id="Raggruppa_2149" data-name="Raggruppa 2149" clip-path="url(#clip-path)">
    <g id="Raggruppa_2148" data-name="Raggruppa 2148">
      <g id="Raggruppa_2147" data-name="Raggruppa 2147" clip-path="url(#clip-path)">
        <path id="Tracciato_3219" data-name="Tracciato 3219" d="M70.329,47.723c6.245-12.2,22.528-26.17,15.789-29.619C62.779,6.16,25.13,52.467,46.821,63.569c6.738,3.449,17.263-3.645,23.508-15.846" fill="#bc5835"/>
        <path id="Tracciato_3220" data-name="Tracciato 3220" d="M90.9,90.5c2.788,2.621-5.255,27.051-7.6,27.69-1.106.3-9.622-17.659-10.035-22S87.956,87.732,90.9,90.5" fill="#c6bb9d"/>
        <path id="Tracciato_3221" data-name="Tracciato 3221" d="M79.014,93.913c5.007-4.857,1.193-6.071-3.939-3.845,0,0-1.913-3.845-4.982-2.833-2.632.867,2.876,8.15-2.882,35.452-2.515,10.184-5.436,19.231-8,21.722-5.008,4.857-1.193,6.072,3.939,3.845,0,0,1.912,3.845,4.982,2.833,2.631-.867-2.877-8.149,2.881-35.451,2.515-10.185,5.437-19.231,8.006-21.723" fill="#d3c8ae"/>
        <path id="Tracciato_3222" data-name="Tracciato 3222" d="M119.043,97.05c-2.569,2.544,4.322,25.513,6.437,26.066,1,.261,9-16.937,9.448-21.057s-13.177-7.69-15.885-5.009" fill="#c6bb9d"/>
        <path id="Tracciato_3223" data-name="Tracciato 3223" d="M107.9,57.843l-6.036,3.464s8.391,11.332,10.923,11.8,5.024-3.832,5.024-3.832A22.583,22.583,0,0,1,107.9,57.843" fill="#b7a780"/>
        <path id="Tracciato_3224" data-name="Tracciato 3224" d="M100.188,63.848l9.354,2.46L115.5,52.869l-4.945-5.012Z" fill="#b7a780"/>
        <path id="Tracciato_3225" data-name="Tracciato 3225" d="M105.618,135.755c2.005,2.591,15.467,2.385,16.173.635,1.15-2.85-11.678-1.322-16.28-4.613-.535-.382-.406,3.315.107,3.978" fill="#c6bb9d"/>
        <path id="Tracciato_3226" data-name="Tracciato 3226" d="M105.131,126.168c2.571,3.349,19.115,3.841,20.047,1.675,1.458-3.391-13.3-1.03-19.2-5.368-.687-.5-1.5,2.837-.845,3.693" fill="#c6bb9d"/>
        <path id="Tracciato_3227" data-name="Tracciato 3227" d="M105.827,115.993c2.718,3.45,22.392,4.458,23.31,2.3,1.693-3.979-15.9-2.447-22.144-7.016-.725-.531-1.861,3.835-1.166,4.717" fill="#c6bb9d"/>
        <path id="Tracciato_3228" data-name="Tracciato 3228" d="M150.9,135.914l4.746,2.7C148.585,127.356,135.82,103.492,136.777,98s-2.685-4.829-5.3-1.165c0,0-3.743-1.983-5.495-.021s10.15,5.685,24.917,39.1" fill="#c6bb9d"/>
        <path id="Tracciato_3229" data-name="Tracciato 3229" d="M190.341,171.372l5.644-.136c-14.128-11.052-37.238-31.613-38.894-37.919-1.677-6.38-4.187-3.5-4.558,1.7,0,0-3.494-.019-3.89,2.794-.386,2.748,11.16,2.1,41.7,33.56" fill="#e0d8bf"/>
        <path id="Tracciato_3230" data-name="Tracciato 3230" d="M172.49,151.086c-8.041-7.536-14.549-14.532-15.4-17.769-1.676-6.379-4.187-3.5-4.558,1.7,0,0-3.493-.019-3.889,2.795-.307,2.183,6.934,2.238,25.242,17.952a10.147,10.147,0,0,1-1.395-4.679" fill="#c6bb9d"/>
        <path id="Tracciato_3231" data-name="Tracciato 3231" d="M109.421,162.247c-6.552-9.223-13.248-30.384-5.345-54.7,8.184-25.182-17.139-47.493-16.313-48.535L89,57.774c1.067,1.067,26.336,22.713,19.331,51.8-4.76,19.759,1.338,42.467,8.3,51.277Z" fill="#c6bb9d"/>
        <path id="Tracciato_3232" data-name="Tracciato 3232" d="M124.737,124.917a34.232,34.232,0,0,0-12.8-2.267s10.509,5.462,12,5.821,2.628-2.777.794-3.554" fill="#e0d8bf"/>
        <path id="Tracciato_3233" data-name="Tracciato 3233" d="M122.129,133.617a23.125,23.125,0,0,0-8.77-3.442s6.653,6.136,7.748,6.585,2.363-2.258,1.022-3.143" fill="#e0d8bf"/>
        <path id="Tracciato_3234" data-name="Tracciato 3234" d="M129.291,114.331c-8.08-3.634-17.746-3.934-17.746-3.934s14.288,7.78,16.318,8.327,3.921-3.272,1.428-4.393" fill="#e0d8bf"/>
        <path id="Tracciato_3235" data-name="Tracciato 3235" d="M108.186,104.513c4.869,3.993,23.608,6.036,24.177,4.3.957-2.924-12.556-2.456-23.955-10.283-1.3-.894-1.613,4.844-.222,5.985" fill="#c6bb9d"/>
        <path id="Tracciato_3236" data-name="Tracciato 3236" d="M131.939,103.877c-8.363-3.767-18.122-3.665-18.122-3.665s15.27,8.233,17.426,8.862,3.3-4.023.7-5.2" fill="#e0d8bf"/>
        <path id="Tracciato_3237" data-name="Tracciato 3237" d="M107.875,94.1c5.421,4.129,25.545,5.147,26.486,3.571,2.392-4.007-15.776-2.545-26.593-9.182-1.47-.9-1.441,4.432.107,5.611" fill="#c6bb9d"/>
        <path id="Tracciato_3238" data-name="Tracciato 3238" d="M103.062,135.156c-1.939,2.37-14.746,1.558-15.343-.278-1.1-3.383,10.776-1.4,14.62-3.62.524-.3,1.219,3.292.723,3.9" fill="#c6bb9d"/>
        <path id="Tracciato_3239" data-name="Tracciato 3239" d="M102.161,125.775c-2.321,2.524-17.473.874-18.021-.994-1.011-3.444,12.375.055,17.465-3,.591-.355,1.149,3.344.556,3.99" fill="#c6bb9d"/>
        <path id="Tracciato_3240" data-name="Tracciato 3240" d="M104.014,115.449c-2.689,2.938-23.021-.648-23.854-2.975-1.535-4.289,16.745,1.445,22.842-1.953.708-.4,1.7,4.177,1.012,4.928" fill="#c6bb9d"/>
        <path id="Tracciato_3241" data-name="Tracciato 3241" d="M105.249,104.939c-5.685,2.744-28.7.316-28.984-1.512-.471-3.075,16.755.567,29.8-4.373,1.49-.564.809,5.1-.815,5.885" fill="#c6bb9d"/>
        <path id="Tracciato_3242" data-name="Tracciato 3242" d="M107.371,93.868c-6.3,2.553-32.636-.007-33.1-1.854-.777-3.106,20.651-.386,33.02-3.921,1.682-.481,1.877,5.046.078,5.775" fill="#c6bb9d"/>
        <path id="Tracciato_3243" data-name="Tracciato 3243" d="M135.544,93.751C126.561,88.667,113.8,87.17,113.8,87.17s19.07,10.954,21.131,11.638c1.961.651,3.018-3.694.61-5.057" fill="#e0d8bf"/>
        <path id="Tracciato_3244" data-name="Tracciato 3244" d="M84.478,121.355a43.522,43.522,0,0,1,15.582-.913s-11.267,4.515-13.729,5.046c-2.479.535-4.939-3.4-1.853-4.133" fill="#e0d8bf"/>
        <path id="Tracciato_3245" data-name="Tracciato 3245" d="M87.516,131.369a25.98,25.98,0,0,1,12.026-2.724s-9.657,6.414-11.068,6.907-2.69-3.24-.958-4.183" fill="#e0d8bf"/>
        <path id="Tracciato_3246" data-name="Tracciato 3246" d="M80.587,108.171a53.682,53.682,0,0,1,20.77.317s-15.728,3.9-19.142,4.335c-3.446.44-5.889-3.874-1.628-4.652" fill="#e0d8bf"/>
        <path id="Tracciato_3247" data-name="Tracciato 3247" d="M77.939,98.818c7.066-2.275,25.788-2.275,25.788-2.275s-18.141,6.744-24.843,7.71c-3.642.525-5.213-4.061-.945-5.435" fill="#e0d8bf"/>
        <path id="Tracciato_3248" data-name="Tracciato 3248" d="M75.43,87.455c9.46-1.959,25.623-.564,25.623-.564S79.3,92.337,76.118,92.553c-3.052.207-4.438-4.321-.688-5.1" fill="#e0d8bf"/>
        <path id="Tracciato_3249" data-name="Tracciato 3249" d="M47.572,68.839,51.79,81.156c23.79-5.4,38.638-16.7,38.638-16.7C100.045,46.9,110,4.556,110,4.556,82.16,18.222,47.572,68.839,47.572,68.839" fill="#b54f2c"/>
        <path id="Tracciato_3250" data-name="Tracciato 3250" d="M47.055,67.217,51.123,79.1c22.943-5.208,37.263-16.11,37.263-16.11,9.275-16.922,18.875-57.765,18.875-57.765-26.849,13.18-60.206,62-60.206,62" fill="#513529"/>
        <path id="Tracciato_3251" data-name="Tracciato 3251" d="M89.661,171.987h45.654s10.106-8.272,3.645-22.7c-7.323-16.35-17.964,5.744-17.964,5.744L104.937,157.6s-7.806-21.038-17.295-13.107c-15.276,12.766,2.019,27.495,2.019,27.495" fill="#c6bb9d"/>
        <path id="Tracciato_3252" data-name="Tracciato 3252" d="M139.427,148.755c-1.147-2.754-3.076-3.636-4.517-4.464-5.92-3.4-11.882,22.372-21.647,22.372-11.453,0-16.565-29.713-25.932-22.094-10.553,7.532-7.359,19.878,2.329,27.417h45.654s10.189-8.641,4.113-23.231" fill="#bcac84"/>
        <path id="Tracciato_3253" data-name="Tracciato 3253" d="M100.7,161.224C67.795,129.219,69.288,91.585,63.842,89.1a3.838,3.838,0,0,0-5.673,2.442c-3.512-5.194-9.8-.063-5.129,3.458,15.2,11.468,34.138,71.192,36.826,72.733,4.639,2.66,5.213-2.722,5.213-2.722,3.847,5.69,10.211.678,5.62-3.788" fill="#c6bb9d"/>
        <path id="Tracciato_3254" data-name="Tracciato 3254" d="M137.433,163.789c-4.51,3.146-6-1.436-6-1.436-3.293,5.8-12.23,2.043-6.879-2.374s18.581-32,24-53.408l4.451,1.236c-14,32.806-11.064,52.837-15.574,55.982" fill="#c6bb9d"/>
        <path id="Tracciato_3255" data-name="Tracciato 3255" d="M161.86,171.462c-.23-17.536,4.554-61.1,4.554-61.1l-18.252,7.746L158.2,171.462Z" fill="#543f48"/>
        <path id="Tracciato_3256" data-name="Tracciato 3256" d="M164.053,134.311c1.167-13.071,2.361-23.947,2.361-23.947l-18.252,7.746,7.348,39.055c.746-12.018,4.213-21.386,8.543-22.854" fill="#3d2b33"/>
        <path id="Tracciato_3257" data-name="Tracciato 3257" d="M184.2,125.731c.277-1.42-16.95-26.489-20-27.909s-26.71,6.179-28.374,9.3c-1.727,3.241-.775,22.637-.775,22.637,28.776,1.784,48.912-2.815,49.15-4.031" fill="#56474d"/>
        <path id="Tracciato_3258" data-name="Tracciato 3258" d="M91.866,72.123c-11.248,7.5-27.2,2.633-31.863-7.093S58.7,31.844,75.922,25.765s36.032,9.353,34.855,22.7c-.608,6.89-14.048,20.42-18.911,23.662" fill="#e0d8bf"/>
        <path id="Tracciato_3259" data-name="Tracciato 3259" d="M92.693,71.532c-1.151-3.181-10.062,3.032-12.766.319-1.691-1.7.868-7.374-.62-9.07-5.531-6.307-13.244-8.379-18.172-3.465a12.687,12.687,0,0,0-2.153,2.895C60.391,75.96,78.609,81.93,92.693,71.532" fill="#c6bb9d"/>
        <path id="Tracciato_3260" data-name="Tracciato 3260" d="M113.32,54.988s2.112,3.069,2.866,2.832a8.273,8.273,0,0,0,2.892-2.518c.171-.525-2.691-2.717-3.216-2.946s-2.6,2.342-2.542,2.632" fill="#e0d8bf"/>
        <path id="Tracciato_3261" data-name="Tracciato 3261" d="M93.536,65.633l7.168,3.156,15.324-16.407-7.48-6.556Z" fill="#e0d8bf"/>
        <path id="Tracciato_3262" data-name="Tracciato 3262" d="M17.229,171.715l-5.3-1.2c13.942-5.476,42.806-19.239,46.949-25.734,4.165-6.531,6.068-2.792,4.631,3.213,0,0,4.311,1.074,3.78,4.588s-11.9-2.6-50.059,19.131" fill="#d3c8ae"/>
        <path id="Tracciato_3263" data-name="Tracciato 3263" d="M64.5,92.8c-3.648-5.775-6.687-.3-6.687-.3-1.52-8.815-12.007-7.143-7.9.608s8.815,48.787,7.447,78.879h5.015c-1.956-24.811-2.552-47.559-1.047-60.675C62.739,98.958,66.266,95.6,64.5,92.8" fill="#e0d8bf"/>
        <path id="Tracciato_3264" data-name="Tracciato 3264" d="M57.678,131.08a3.985,3.985,0,0,0,2.8-1.4,170.986,170.986,0,0,1,.846-18.372C62.739,98.958,66.266,95.605,64.5,92.8c-3.648-5.775-6.688-.3-6.688-.3-1.52-8.815-12.006-7.143-7.9.608,2.344,4.428,4.885,19.723,6.379,37.63a3.16,3.16,0,0,0,1.393.343" fill="#eae3ce"/>
        <path id="Tracciato_3265" data-name="Tracciato 3265" d="M35.938,171.987H62.422a3.692,3.692,0,0,0-1.734-5.356c-3.783-1.874-11.035,2.946-11.035,2.946s-16.237-4.284-13.715,2.41" fill="#e0d8bf"/>
        <path id="Tracciato_3266" data-name="Tracciato 3266" d="M156.521,172.392h25.816s-15.659-8.674-23.526-7.822c-1.689.183-2.29,7.822-2.29,7.822" fill="#543f48"/>
        <path id="Tracciato_3267" data-name="Tracciato 3267" d="M92.968,55.072a21,21,0,0,1,4.359,4.037c.053-.109.115-.208.161-.324,1.813-4.516-1.918-11.8-7.776-15.807-5.3-3.63-10.393-3.164-11.791.7-1.11,3.066.326,7.683,3.483,11.582,1.655-3.379,6.509-3.649,11.564-.188" fill="#4f2f3c"/>
        <path id="Tracciato_3268" data-name="Tracciato 3268" d="M90.761,43.75c-.342-.268-.691-.527-1.05-.772-5.3-3.63-10.393-3.164-11.79.7-1.11,3.067.326,7.684,3.483,11.583,1.129-2.3,3.745-3.16,6.9-2.375a25.347,25.347,0,0,1,2.458-9.135" fill="#422633"/>
        <path id="Tracciato_3269" data-name="Tracciato 3269" d="M109.119,46.73c1.593-2.5-1.17-8.134-5.654-12.1-3.991-3.527-7.934-4.429-9.182-2.36s.458,6.6,4.131,10.537c4.121,4.413,9.124,6.405,10.705,3.921" fill="#351d28"/>
        <path id="Tracciato_3270" data-name="Tracciato 3270" d="M95.294,38.094c1.244-2.176,5.27-1.22,9.313,2.462a22.317,22.317,0,0,1,4.643,5.9c1.237-2.626-1.387-8.028-5.689-11.946-4.044-3.682-8.07-4.638-9.314-2.462-.768,1.344-.358,3.684.967,6.224.028-.059.049-.122.08-.177" fill="#4f2f3c"/>
        <path id="Tracciato_3271" data-name="Tracciato 3271" d="M102.466,33.584c-3.653-2.9-7.087-3.516-8.219-1.537-.768,1.344-.358,3.683.968,6.223a1.879,1.879,0,0,1,.08-.177c.834-1.459,2.921-1.5,5.424-.267a13.46,13.46,0,0,1,1.747-4.242" fill="#422633"/>
        <path id="Tracciato_3272" data-name="Tracciato 3272" d="M86.75,69.8s9.768,8.721,11.629,9.884,22.931-1.876,25.35-3.488c.7-.465-3.023-10-3.023-10s-18.374,6.745-20.234,6.163-10.117-6.861-10.117-6.861Z" fill="#e0d8bf"/>
        <path id="Tracciato_3273" data-name="Tracciato 3273" d="M98,77.906c-1.464-.915-7.57-6.267-10.573-8.924l-.668,5.908s9.579,4.268,11.44,5.431,23.106-2.516,25.525-4.129c.157-.1.089-.672-.11-1.484-5.194,1.749-23.825,4.316-25.614,3.2" fill="#c6bb9d"/>
        <path id="Tracciato_3274" data-name="Tracciato 3274" d="M190.941,171.857h16.693c2.423-1.343-11.052-5.471-15.65-3.256a2.108,2.108,0,0,0-1.043,3.256" fill="#e0d8bf"/>
        <path id="Tracciato_3275" data-name="Tracciato 3275" d="M203.813,171.813h13.715c1.991-.757-9.08-3.084-12.858-1.836-2.042.675-.857,1.836-.857,1.836" fill="#e0d8bf"/>
        <path id="Tracciato_3276" data-name="Tracciato 3276" d="M60.154,171.987h5.682c.825-1.554-3.762-6.33-5.327-3.768-.846,1.386-.355,3.768-.355,3.768" fill="#e0d8bf"/>
        <path id="Tracciato_3277" data-name="Tracciato 3277" d="M191.407,170.772c2.1-2.033,9.4-7.389,11.552-6.459,1.821.787-7.275,6.326-8.46,6.705a6.789,6.789,0,0,1-3.092-.246" fill="#e0d8bf"/>
        <path id="Tracciato_3278" data-name="Tracciato 3278" d="M202.791,164.28c3.108,2.108,7.791,6.044,7.225,7.172s-7.389-4.071-8.069-5.075.844-2.1.844-2.1" fill="#e0d8bf"/>
        <path id="Tracciato_3279" data-name="Tracciato 3279" d="M166.755,126.893c-13.872,0-25.118-8.07-25.118-18.024a13.444,13.444,0,0,1,1.309-5.739c-3.719,1.494-6.583,2.98-7.123,3.994-1.727,3.242-.775,22.637-.775,22.637,28.776,1.784,48.912-2.815,49.15-4.031a10.061,10.061,0,0,0-1.465-2.953,31.553,31.553,0,0,1-15.978,4.116" fill="#543f48"/>
        <path id="Tracciato_3280" data-name="Tracciato 3280" d="M100.743,50.629c.918-.714,4.962,3.527,4.962,3.527l-2.675,3.373s-3.333-6.086-2.287-6.9" fill="#4f2f3c"/>
        <path id="Tracciato_3281" data-name="Tracciato 3281" d="M102.424,48.928c-.781.6,4.223,4.459,4.223,4.459l2.228-2s-5.662-3.069-6.451-2.461" fill="#4f2f3c"/>
        <path id="Tracciato_3282" data-name="Tracciato 3282" d="M97.389,58.989c.731-2.895-3.507-6.527-8.622-8.895-4.629-2.145-8.49-1.713-9,.76-.5,2.444,2.394,6.3,6.822,8.84,4.879,2.8,10.077,2.15,10.8-.705" fill="#351d28"/>
        <path id="Tracciato_3283" data-name="Tracciato 3283" d="M103.03,57.529l1.326-1.672A9.772,9.772,0,0,0,101.17,53.6a40.6,40.6,0,0,0,1.86,3.934" fill="#351d28"/>
        <path id="Tracciato_3284" data-name="Tracciato 3284" d="M107.664,52.475a23.769,23.769,0,0,0-4.052-1.683c1.27,1.232,3.035,2.6,3.035,2.6Z" fill="#351d28"/>
        <path id="Tracciato_3285" data-name="Tracciato 3285" d="M117.6,65.885a11.655,11.655,0,0,0-3.4,1.184c-.339.3.85,2.283,1.166,2.565s3.456-.982,3.544-1.208c0,0-.517-2.593-1.309-2.541" fill="#e0d8bf"/>
        <path id="Tracciato_3286" data-name="Tracciato 3286" d="M110.973,68.056a11.645,11.645,0,0,0-3.4,1.184c-.339.3.85,2.283,1.166,2.565s3.456-.982,3.544-1.208c0,0-.517-2.594-1.309-2.541" fill="#e0d8bf"/>
        <path id="Tracciato_3287" data-name="Tracciato 3287" d="M105.986,70.543a13.26,13.26,0,0,0-3.832.62c-.435.252.761,2.328,1.075,2.609s3.49-.6,3.6-.785c0,0-.077-2.365-.844-2.444" fill="#e0d8bf"/>
        <path id="Tracciato_3288" data-name="Tracciato 3288" d="M101.518,67.122s2.093,3.081,2.849,2.849a8.269,8.269,0,0,0,2.907-2.5c.175-.523-2.675-2.733-3.2-2.966s-2.616,2.326-2.558,2.617" fill="#e0d8bf"/>
        <path id="Tracciato_3289" data-name="Tracciato 3289" d="M105.53,63.343s2.093,3.082,2.849,2.849a8.259,8.259,0,0,0,2.907-2.5c.175-.523-2.674-2.733-3.2-2.965s-2.616,2.325-2.558,2.616" fill="#e0d8bf"/>
        <path id="Tracciato_3290" data-name="Tracciato 3290" d="M109.135,59.1s2.093,3.082,2.849,2.849a8.269,8.269,0,0,0,2.907-2.5c.175-.523-2.674-2.733-3.2-2.966s-2.616,2.326-2.558,2.617" fill="#e0d8bf"/>
        <g id="Raggruppa_2140" data-name="Raggruppa 2140" opacity="0.43" style="mix-blend-mode: multiply;isolation: isolate">
          <g id="Raggruppa_2139" data-name="Raggruppa 2139">
            <g id="Raggruppa_2138" data-name="Raggruppa 2138" clip-path="url(#clip-path-3)">
              <path id="Tracciato_3291" data-name="Tracciato 3291" d="M75.922,25.764c-15.735,5.553-19.891,25.6-16.94,36.446.83,8.1,7.491,13.49,15.7,14.434,4.04-13.709,19.39-41.734,29.306-43.652-6.809-6.762-17.718-10.881-28.069-7.228" fill="#843131"/>
            </g>
          </g>
        </g>
        <path id="Tracciato_3292" data-name="Tracciato 3292" d="M107.131,0S63.357,14.39,32.649,66.356l19.141,14.8C71.7,46.9,92.283,20.753,110,4.556Z" fill="#c6663c"/>
        <path id="Tracciato_3293" data-name="Tracciato 3293" d="M46.716,45.985A173.874,173.874,0,0,0,32.65,66.357l19.14,14.8a415.71,415.71,0,0,1,33.744-49.95C69.961,39.962,55.58,45.321,46.716,45.985" fill="#b54f2c"/>
        <path id="Tracciato_3294" data-name="Tracciato 3294" d="M156.8,100.4a43.506,43.506,0,0,0,20.767,17.85c-4.461-6.871-12.328-17.772-14.177-18.633-.826-.384-3.4,0-6.59.783" fill="#725d65"/>
        <path id="Tracciato_3295" data-name="Tracciato 3295" d="M2.349,172.392H24.52l1.028-45.635-11.012-9.164V94.776H9.47V118.06L0,126.383Z" fill="#6fb29d"/>
        <path id="Tracciato_3296" data-name="Tracciato 3296" d="M25.548,126.757l-10.661-9.29-.351-22.692H9.47l-.313,23.068-1.424,1.744c7.063.325,17.815,7.17,17.815,7.17" fill="#5e8e85"/>
        <path id="Tracciato_3297" data-name="Tracciato 3297" d="M22.153,123.8q.045.508.08,1.026c2,1.1,3.315,1.932,3.315,1.932Z" fill="#4b7069"/>
        <path id="Tracciato_3298" data-name="Tracciato 3298" d="M11.591,105.429a5.784,5.784,0,0,1,3.125.971l-.18-11.624H9.471l-.152,11.162a5.484,5.484,0,0,1,2.272-.509" fill="#4b7069"/>
        <path id="Tracciato_3299" data-name="Tracciato 3299" d="M21.21,123.147c-3.711,17.721-12.3,30.144-19.916,28.589l1.055,20.656H24.52l1.028-45.635Z" fill="#557f78"/>
        <rect id="Rettangolo_744" data-name="Rettangolo 744" width="6.684" height="9.158" transform="translate(8.722 91.62)" fill="#6fb29d"/>
        <path id="Tracciato_3300" data-name="Tracciato 3300" d="M7.965,120.633l-6.216,5.688a33.7,33.7,0,0,0,16.123-2.79Z" fill="#a9dbcb"/>
        <g id="Raggruppa_2143" data-name="Raggruppa 2143" opacity="0.36" style="mix-blend-mode: multiply;isolation: isolate">
          <g id="Raggruppa_2142" data-name="Raggruppa 2142">
            <g id="Raggruppa_2141" data-name="Raggruppa 2141" clip-path="url(#clip-path-4)">
              <path id="Tracciato_3301" data-name="Tracciato 3301" d="M3.347,151.107l1.119,18.85H22.548l.569-26.764C21.391,133.7,17.826,127.18,13.7,127.18c-5.188,0-9.495,10.335-10.358,23.927" fill="#6fb29d"/>
            </g>
          </g>
        </g>
        <g id="Raggruppa_2146" data-name="Raggruppa 2146" opacity="0.43">
          <g id="Raggruppa_2145" data-name="Raggruppa 2145">
            <g id="Raggruppa_2144" data-name="Raggruppa 2144" clip-path="url(#clip-path-5)">
              <path id="Tracciato_3302" data-name="Tracciato 3302" d="M23.264,126.805c.028.939.048,1.883.048,2.837,0,19.824-6.23,36.5-14.7,41.471H22.947l1.088-43.727Z" fill="#6fb29d"/>
            </g>
          </g>
        </g>
        <path id="Tracciato_3303" data-name="Tracciato 3303" d="M35.02,49.907l6.361-.493-9.253,3.711a72.445,72.445,0,0,0-6.835,9.248l10.8-3.493L23.65,65.587a1.472,1.472,0,0,0-.082.372c0,.6.3,1.688,1.719,5.943l9.246-1.5L26.4,75.278c2.96,8.83,7.176,20.683,7.176,20.683,5.813-46.393,27.777-65.978,27.777-65.978A98.313,98.313,0,0,0,35.02,49.907" fill="#f7e1a1"/>
      </g>
    </g>
  </g>
</svg>
