<svg id="Raggruppa_2137" data-name="Raggruppa 2137" xmlns="http://www.w3.org/2000/svg" xmlns:xlink="http://www.w3.org/1999/xlink" width="516.589" height="524.743" viewBox="0 0 516.589 524.743">
  <defs>
    <clipPath id="clip-path">
      <rect id="Rettangolo_742" data-name="Rettangolo 742" width="516.589" height="524.743" fill="none"/>
    </clipPath>
    <clipPath id="clip-path-3">
      <rect id="Rettangolo_740" data-name="Rettangolo 740" width="67.21" height="66.844" fill="none"/>
    </clipPath>
    <clipPath id="clip-path-4">
      <path id="Tracciato_3218" data-name="Tracciato 3218" d="M109.045,46.782,174.466,60.7l-1.789,52.925-65.42-13.919Z" transform="translate(-107.256 -46.782)" fill="none"/>
    </clipPath>
  </defs>
  <g id="Raggruppa_2136" data-name="Raggruppa 2136" clip-path="url(#clip-path)">
    <path id="Tracciato_3140" data-name="Tracciato 3140" d="M261.925,65.343,71.352,25.946v5.83l190.574,39.4Z" transform="translate(92.536 33.65)" fill="#bf6351"/>
    <path id="Tracciato_3141" data-name="Tracciato 3141" d="M155.407,0,91.806,458.86h8.478L160.8,2.9Z" transform="translate(119.063 -0.001)" fill="#bf6351"/>
    <g id="Raggruppa_2135" data-name="Raggruppa 2135">
      <g id="Raggruppa_2134" data-name="Raggruppa 2134" clip-path="url(#clip-path)">
        <path id="Tracciato_3142" data-name="Tracciato 3142" d="M101.122,128.179,94.433,293.317h7l5.91-165.675c-2.1.221-4.169.4-6.218.537" transform="translate(122.47 165.539)" fill="#bf6351"/>
        <path id="Tracciato_3143" data-name="Tracciato 3143" d="M119.027,59.887,105.156,159.956c1.227-.158,2.455-.317,3.7-.462,1.206-.14,2.4-.266,3.6-.39l13.168-99.217Z" transform="translate(136.377 77.668)" fill="#8e3e33"/>
        <path id="Tracciato_3144" data-name="Tracciato 3144" d="M81.979,188.985c14.484-6.755,96.959,48.552,96.959,48.552L17.011,274.122s54.774-80.382,64.968-85.137" transform="translate(22.062 244.353)" fill="#e8651c"/>
        <path id="Tracciato_3145" data-name="Tracciato 3145" d="M177.909,199.89c9.941-6.833,56.35,20.213,56.35,20.213l-5.625,27.889-47.227,15.3s-10.495-58.6-3.5-63.406" transform="translate(227.611 257.802)" fill="#ea7d1b"/>
        <path id="Tracciato_3146" data-name="Tracciato 3146" d="M210.094,269.548l106.99-90.372s-138.23-78.848-191.823-36.151c-20.649,16.453-84.714,65.877-66.9,87.6,27.953,34.1,151.738,38.919,151.738,38.919" transform="translate(71.673 169.05)" fill="#5e342b"/>
        <path id="Tracciato_3147" data-name="Tracciato 3147" d="M203.458,253.7l97.016-81.949L158.013,137.79l-96.2,80.171Z" transform="translate(80.161 178.7)" fill="#44211b"/>
        <path id="Tracciato_3148" data-name="Tracciato 3148" d="M223.62,164.126,137.8,143.67c-28.172,30.836-12.959,90.19-9.8,101.227Z" transform="translate(157.016 186.326)" fill="#4f2621"/>
        <path id="Tracciato_3149" data-name="Tracciato 3149" d="M141.137,152.753l144,34.589s-25.353-32.258-59.462-40.566S73.932,120.714,73.932,120.714Z" transform="translate(95.882 156.554)" fill="#7f4c40"/>
        <path id="Tracciato_3150" data-name="Tracciato 3150" d="M73.932,120.714l67.205,32.037,38.248,9.188c-43.094-31.429-74.121-40.71-105.453-41.225" transform="translate(95.882 156.554)" fill="#ff9f36"/>
        <path id="Tracciato_3151" data-name="Tracciato 3151" d="M226.092,146.888a183.242,183.242,0,0,1,33.716,28.169l-134.6-34.522L88.228,122.9c-8.859-1.369-14.3-2.189-14.3-2.189l67.2,32.039,151.74,38.919s-32.82-36.28-66.782-44.783" transform="translate(95.882 156.553)" fill="#ff9f36"/>
        <path id="Tracciato_3152" data-name="Tracciato 3152" d="M65.5,201.281c30.9-15.743,86.29-48.977,90.955-48.977s32.069,23.906,32.069,23.906,37.313-17.491,43.728-17.491S316.79,222.27,316.79,222.27Z" transform="translate(84.941 197.523)" fill="#f4bf3b"/>
        <path id="Tracciato_3153" data-name="Tracciato 3153" d="M189.106,193.143l-43.154-7.536-12.463-27.478,29.263,11.315Z" transform="translate(173.122 205.078)" fill="#e87f21"/>
        <path id="Tracciato_3154" data-name="Tracciato 3154" d="M119.056,172.242c11.958,12.881,20.886,17.089,31.881,38.009l36.335,3.037c-22.811-22.944-34.35-47.109-27.71-57.923-8.46,2.354-31.929,12.948-40.506,16.878" transform="translate(154.404 201.492)" fill="#e87f21"/>
        <path id="Tracciato_3155" data-name="Tracciato 3155" d="M140.852,194.987c-4.284-17-3.879-31.077.457-39.541-19.726,10.669-53.911,30.6-75.814,41.76l77.886,6.507c-.965-2.979-1.817-5.9-2.529-8.726" transform="translate(84.941 201.598)" fill="#e87f21"/>
        <path id="Tracciato_3156" data-name="Tracciato 3156" d="M118.294,172.422,126.6,299.672H287.378L264.143,193.96Z" transform="translate(153.416 223.614)" fill="#7f4c40"/>
        <path id="Tracciato_3157" data-name="Tracciato 3157" d="M198.1,184.207l-79.8-11.785,7.492,114.758Z" transform="translate(153.416 223.613)" fill="#915043"/>
        <path id="Tracciato_3158" data-name="Tracciato 3158" d="M156.575,277.522h81.159L218.386,189.5Z" transform="translate(203.062 245.763)" fill="#915043"/>
        <path id="Tracciato_3159" data-name="Tracciato 3159" d="M150.565,296.488,117.912,171.3l1.314-.018,145.908,20.842L291.08,295.03l-13.993.292L257.847,201.16,131.908,181.627l29.736,117.484Z" transform="translate(152.921 222.133)" fill="#ff9f36"/>
        <path id="Tracciato_3160" data-name="Tracciato 3160" d="M56.04,174.171l8.308,125.5H231.392L198.158,172.421Z" transform="translate(72.678 223.613)" fill="#5e342b"/>
        <path id="Tracciato_3161" data-name="Tracciato 3161" d="M72.979,214.166l94.747-4.665s-48.593,9.5-94.747,4.665" transform="translate(94.647 271.702)" fill="#4f2621"/>
        <path id="Tracciato_3162" data-name="Tracciato 3162" d="M77.131,275.354l-7.871-90.519,120.254.875,24.926,111.944h18.8l-32.8-126.376-145.16,2.173,5.228,93.155Z" transform="translate(71.702 222.132)" fill="#f97c28"/>
        <path id="Tracciato_3163" data-name="Tracciato 3163" d="M437.56,217.491c-5.924,26.66-34.982,39.063-54.806,43.145s-93.872-.583-130.6-10.495C200.334,236.16,120.381,198.25,108.136,198.25s-96.2,69.382-96.2,69.382H501.113c-11.078-16.324-62.386-55.39-63.553-50.141" transform="translate(15.478 257.111)" fill="#f4bf3b"/>
        <path id="Tracciato_3164" data-name="Tracciato 3164" d="M172.509,217.005c-22.08-11.071-45.435-19.815-50.945-19.815C109.321,197.19,0,269.007,0,269.007H237.281c-40.621-16.572-65.4-35.285-64.773-52" transform="translate(0 255.736)" fill="#f9a230"/>
        <path id="Tracciato_3165" data-name="Tracciato 3165" d="M145.886,210.817l52.422-83.338,11.595,1.985L173.029,232.895Z" transform="translate(189.2 165.327)" fill="#c0dddc"/>
        <path id="Tracciato_3166" data-name="Tracciato 3166" d="M145.886,212.546l41.052-86.4,19.165,1.518L169.25,231.55Z" transform="translate(189.2 163.598)" fill="#85aaa9"/>
        <path id="Tracciato_3167" data-name="Tracciato 3167" d="M154.9,155.506l-9.011,18.963,18.66,14.826Z" transform="translate(189.2 201.675)" fill="#95c1bf"/>
        <path id="Tracciato_3168" data-name="Tracciato 3168" d="M169.444,180.516l18.844-52.854-19.165-1.516-9.5,19.988Z" transform="translate(207.017 163.599)" fill="#95c1bf"/>
        <path id="Tracciato_3169" data-name="Tracciato 3169" d="M180.216,161.826l18.775-61.408-4.663-1.167-30.36,62.574Z" transform="translate(212.65 128.72)" fill="#434949"/>
        <path id="Tracciato_3170" data-name="Tracciato 3170" d="M249.123,159.259c.583-27.4-4.4-87-10.226-95.161-18.577,10.2-48.021-3.289-79.282-16.96-29.534,8.354-52.174-.156-80.16-20.231,0,0,22.156,56.557,13.993,153.925,0,0,22.156-27.4,34.984-26.819S157.585,171.5,157.585,171.5s8.163-16.907,19.241-13.412,9.328,12.245,39.647,23.906,43.145,51.308,43.145,51.308-11.078-46.643-10.495-74.047M205.5,175.443c-3.335-1.082-6.73-2.249-9.47-4.438s-4.736-5.623-4.286-9.1a1.591,1.591,0,0,1,1.169-1.537c3.526-1.472,7.637-.044,10.749,2.171s5.644,5.175,8.806,7.316c3.666,2.478,8.253,3.939,10.749,7.594-1.734.439-13.609-.673-17.718-2.005m28.275,11.386c-1.7.758-4.64-1.477-5.85-2.421a1.843,1.843,0,0,1-.88-1.321,1.277,1.277,0,0,1,.583-1,3.214,3.214,0,0,1,1.109-.439,3.389,3.389,0,0,1,2.154.007,3.341,3.341,0,0,1,.995.756c.806.811,3.714,3.6,1.888,4.417M154.227,151.16c-.827.54-2.256-1.052-2.841-1.723a1.44,1.44,0,0,1-.43-.942,1.026,1.026,0,0,1,.285-.707,1.332,1.332,0,0,1,.537-.315,1.167,1.167,0,0,1,1.047,0,1.918,1.918,0,0,1,.485.54c.39.577,1.805,2.563.916,3.142m-11.514.145c-.827.54-2.256-1.05-2.844-1.72a1.449,1.449,0,0,1-.427-.942,1.045,1.045,0,0,1,.283-.71,1.35,1.35,0,0,1,.54-.312,1.153,1.153,0,0,1,1.047,0,1.838,1.838,0,0,1,.482.537c.393.579,1.805,2.563.919,3.142m100.044,16.168a4.6,4.6,0,0,1-4.943-1.362.5.5,0,0,1-.117-.618,1.912,1.912,0,0,1,.5-.618,4.871,4.871,0,0,1,.678-.466,4.033,4.033,0,0,1,1.415-.59,1.489,1.489,0,0,1,.712.122c.7.269,5.7,2.01,1.755,3.533m-93.635-6.13A17.477,17.477,0,0,1,144,149.47c-.011-.413.064-.8.62-.753a4.006,4.006,0,0,1,1.475.6,14.68,14.68,0,0,1,1.527,1.1,15.068,15.068,0,0,1,2.71,2.612,6.239,6.239,0,0,1,.834,1.651c.622,1.732,5.352,14.039-2.042,6.659m99.306,39.824c-.6.882-2.83-3.234-5.065-7.426-1.337-2.511-3.376-6.686-3.618-9.5-.186-2.157.946-1.835,2.194-.45a25.691,25.691,0,0,1,2.713,3.987,25.024,25.024,0,0,1,2.412,5.044c.257.8.448,1.624.609,2.352.37,1.677,1.206,5.333.756,5.995m-3.023-40.04c-2.69,4.359-6.073-6.969-7.192-10.807a19.4,19.4,0,0,1-.776-5.444,33.372,33.372,0,0,1,.393-5.414,26.888,26.888,0,0,1,.946-3.914c.691-2.23,1.532-4.486,2.35-4.153.5.2.935,1.374,1.357,2.683,1.229,3.829,6.969,20.493,2.922,27.048" transform="translate(103.047 34.896)" fill="#473c3b"/>
        <path id="Tracciato_3171" data-name="Tracciato 3171" d="M160.462,125.128c-.492-2.968,2.044-4.049,6.418-4.41-6.868-.012-11.595,1.243-10.993,5.9.96,7.451,43.689,23.01,69.369,3.144-27.12,13.676-63.84,1.1-64.793-4.635" transform="translate(202.102 156.559)" fill="#95c1bf"/>
        <path id="Tracciato_3172" data-name="Tracciato 3172" d="M205.984,100.965l-.556,1.629c5.784,5.072,11.482,15.8,9,26.91-6.81,30.5-64.214,7.938-57.3,22.062,4.04,8.253,68.859,27.544,77.13-9.5,6.7-30.027-28.277-41.105-28.277-41.105" transform="translate(203.035 130.942)" fill="#c0dddc"/>
        <path id="Tracciato_3173" data-name="Tracciato 3173" d="M69.8,243l101.732-88.872S123.689,93.311,70.1,136.011C17.037,178.283,69.8,243,69.8,243" transform="translate(60.226 156.679)" fill="#5e342b"/>
        <path id="Tracciato_3174" data-name="Tracciato 3174" d="M70.119,136.155c-53.058,42.27-.448,108.781-.448,108.781l107.146-92.165s-53.1-59.315-106.7-16.616m5.818,87.151s-38.432-47.139.211-77.927c39.036-31.1,77.716,12.1,77.716,12.1Z" transform="translate(60.203 156.534)" fill="#f97c28"/>
        <path id="Tracciato_3175" data-name="Tracciato 3175" d="M55.655,173.515A2.915,2.915,0,1,0,58.57,170.6a2.914,2.914,0,0,0-2.915,2.915" transform="translate(72.179 221.251)" fill="#5e342b"/>
        <path id="Tracciato_3176" data-name="Tracciato 3176" d="M132.124,188.813l101.741,8.163s-52.181,2.915-101.741-8.163" transform="translate(171.352 244.872)" fill="#5e342b"/>
        <path id="Tracciato_3177" data-name="Tracciato 3177" d="M107.243,128.467l82.934,20.178s-43.462-5.639-82.934-20.178" transform="translate(139.084 166.609)" fill="#5e342b"/>
        <path id="Tracciato_3178" data-name="Tracciato 3178" d="M68.41,192.335l94.745-4.665s-48.593,9.5-94.745,4.665" transform="translate(88.721 243.389)" fill="#4f2621"/>
        <path id="Tracciato_3179" data-name="Tracciato 3179" d="M60.528,178.673l49.3-40.807s-20.612,26.274-49.3,40.807" transform="translate(78.499 178.799)" fill="#4f2621"/>
        <path id="Tracciato_3180" data-name="Tracciato 3180" d="M58.78,156.7l31.1-24.882S78.6,149.919,58.78,156.7" transform="translate(76.232 170.948)" fill="#4f2621"/>
        <path id="Tracciato_3181" data-name="Tracciato 3181" d="M70.695,201.981l94.745-4.665s-48.593,9.5-94.745,4.665" transform="translate(91.684 255.899)" fill="#4f2621"/>
        <path id="Tracciato_3182" data-name="Tracciato 3182" d="M138.334,200.76l91.858,2.873s-46.8,4.913-91.858-2.873" transform="translate(179.406 260.366)" fill="#5e342b"/>
        <path id="Tracciato_3183" data-name="Tracciato 3183" d="M140.231,213.56l91.332.772s-46.988,4.164-91.332-.772" transform="translate(181.866 276.966)" fill="#5e342b"/>
        <path id="Tracciato_3184" data-name="Tracciato 3184" d="M238.641,238.452l-12.449-.214-24.051-5.393-6.778-24.6,20.334,5.065Z" transform="translate(253.367 270.076)" fill="#e87f21"/>
        <path id="Tracciato_3185" data-name="Tracciato 3185" d="M204.62,208.334l-1.546,11.092,9.8,12.7,15.771,6.213,8.046-6.356-9.1-21.318Z" transform="translate(263.367 270.189)" fill="#e0466f"/>
        <path id="Tracciato_3186" data-name="Tracciato 3186" d="M204.62,208.334l-1.546,11.092,9.8,12.7-3.967-13.97,18.688-7.49Z" transform="translate(263.367 270.189)" fill="#ef4b7e"/>
        <path id="Tracciato_3187" data-name="Tracciato 3187" d="M222.843,230.667l-4.534.639-4.562-21.956Z" transform="translate(277.209 271.506)" fill="#ff94ab"/>
        <path id="Tracciato_3188" data-name="Tracciato 3188" d="M208.9,218.156l-4.19-9.812-.094-.009-1.544,11.092,9.8,12.7,15.768,6.213,8-6.321-13.017-.6Z" transform="translate(263.368 270.189)" fill="#c11e50"/>
        <path id="Tracciato_3189" data-name="Tracciato 3189" d="M196.9,174.309,59.812,173.216l134.764-1.936Z" transform="translate(77.57 222.133)" fill="#ff9f36"/>
        <path id="Tracciato_3190" data-name="Tracciato 3190" d="M114.927,177.056a2.333,2.333,0,1,0,2.331-2.331,2.332,2.332,0,0,0-2.331,2.331" transform="translate(149.049 226.601)" fill="#5e342b"/>
        <path id="Tracciato_3191" data-name="Tracciato 3191" d="M121.168,175.891a3.215,3.215,0,0,0,2.26,2.474c.949.115,1.475-.806,1.174-2.06a3.215,3.215,0,0,0-2.26-2.474c-.949-.115-1.475.809-1.174,2.06" transform="translate(157.033 225.428)" fill="#5e342b"/>
        <path id="Tracciato_3192" data-name="Tracciato 3192" d="M179.637,183.678a3.215,3.215,0,0,0,2.26,2.474c.949.115,1.475-.809,1.174-2.06a3.215,3.215,0,0,0-2.26-2.474c-.949-.115-1.475.809-1.174,2.06" transform="translate(232.861 235.527)" fill="#5e342b"/>
        <path id="Tracciato_3193" data-name="Tracciato 3193" d="M95.571,135.426a2.333,2.333,0,1,0,2.331-2.331,2.334,2.334,0,0,0-2.331,2.331" transform="translate(123.946 172.611)" fill="#5e342b"/>
        <path id="Tracciato_3194" data-name="Tracciato 3194" d="M94.788,159.429C119.149,140.14,157.629,125.173,202.042,120a271.915,271.915,0,0,1,45.582-1.518c-1.84-24.614-5.12-49.337-8.726-54.386-18.577,10.2-48.019-3.291-79.28-16.96-29.536,8.352-52.176-.156-80.162-20.231,0,0,18.906,48.336,15.332,132.522" transform="translate(103.047 34.896)" fill="#3d3433"/>
        <path id="Tracciato_3195" data-name="Tracciato 3195" d="M188.946,101.4l-.455,1.047c7.651,4.155,26.256,16.806,19.4,38.829-4.957,15.913-20.309,19.331-35.512,17.656,16.3,2.623,33.744,0,39.091-17.162,8.558-27.466-22.519-40.37-22.519-40.37" transform="translate(223.552 131.51)" fill="#e9f4f3"/>
        <path id="Tracciato_3196" data-name="Tracciato 3196" d="M174.869,103.3a8.454,8.454,0,1,0,8.455-8.455,8.455,8.455,0,0,0-8.455,8.455" transform="translate(226.788 122.999)" fill="#434949"/>
        <path id="Tracciato_3197" data-name="Tracciato 3197" d="M176.848,100.729a3.909,3.909,0,1,0,3.909-3.909,3.909,3.909,0,0,0-3.909,3.909" transform="translate(229.354 125.566)" fill="#c0dddc"/>
        <path id="Tracciato_3198" data-name="Tracciato 3198" d="M96.4,220.746c0-2.5-6.264-4.518-13.993-4.518s-13.993,2.021-13.993,4.518,6.264,4.518,13.993,4.518S96.4,223.24,96.4,220.746" transform="translate(88.722 280.426)" fill="#f4bf3b"/>
        <path id="Tracciato_3199" data-name="Tracciato 3199" d="M117.909,169.724c0-2.5-6.266-4.518-13.993-4.518s-13.993,2.021-13.993,4.518,6.264,4.518,13.993,4.518,13.993-2.024,13.993-4.518" transform="translate(116.623 214.256)" fill="#f4bf3b"/>
        <path id="Tracciato_3200" data-name="Tracciato 3200" d="M113.04,163.285c0-1.755-4.408-3.179-9.845-3.179s-9.845,1.424-9.845,3.179,4.408,3.179,9.845,3.179,9.845-1.424,9.845-3.179" transform="translate(121.067 207.642)" fill="#e87f21"/>
        <path id="Tracciato_3201" data-name="Tracciato 3201" d="M125.034,168.045c0-1.755-4.408-3.179-9.845-3.179s-9.844,1.424-9.844,3.179,4.408,3.177,9.844,3.177,9.845-1.422,9.845-3.177" transform="translate(136.622 213.815)" fill="#ffd16c"/>
        <path id="Tracciato_3202" data-name="Tracciato 3202" d="M127.191,226.047c0-1.755-4.408-3.179-9.845-3.179s-9.845,1.424-9.845,3.179,4.408,3.179,9.845,3.179,9.845-1.424,9.845-3.179" transform="translate(139.419 289.038)" fill="#ffd16c"/>
        <path id="Tracciato_3203" data-name="Tracciato 3203" d="M200.117,227.566c-.315-1.38-4.975-2.5-10.412-2.5s-9.592,1.116-9.277,2.5,4.975,2.5,10.412,2.5,9.592-1.119,9.277-2.5" transform="translate(233.975 291.892)" fill="#ffd16c"/>
        <path id="Tracciato_3204" data-name="Tracciato 3204" d="M231.012,227.7c0-1.755-4.408-3.179-9.845-3.179s-9.844,1.424-9.844,3.179,4.408,3.179,9.844,3.179,9.845-1.424,9.845-3.179" transform="translate(274.065 291.178)" fill="#ffd16c"/>
        <path id="Tracciato_3205" data-name="Tracciato 3205" d="M216.163,224.524c0-1.755-4.408-3.179-9.845-3.179s-9.844,1.424-9.844,3.179,4.408,3.179,9.844,3.179,9.845-1.424,9.845-3.179" transform="translate(254.807 287.063)" fill="#ffd16c"/>
        <path id="Tracciato_3206" data-name="Tracciato 3206" d="M105.861,219.972c0-1.755-4.408-3.179-9.845-3.179s-9.845,1.424-9.845,3.179,4.408,3.179,9.845,3.179,9.845-1.424,9.845-3.179" transform="translate(111.757 281.159)" fill="#ffd16c"/>
        <path id="Tracciato_3207" data-name="Tracciato 3207" d="M80.906,213.636c0-1.941-4.872-3.514-10.88-3.514s-10.88,1.573-10.88,3.514,4.872,3.514,10.88,3.514,10.88-1.573,10.88-3.514" transform="translate(76.705 272.507)" fill="#f4bf3b"/>
        <path id="Tracciato_3208" data-name="Tracciato 3208" d="M111.494,226.455c0-1.941-4.872-3.514-10.88-3.514s-10.88,1.573-10.88,3.514,4.872,3.514,10.88,3.514,10.88-1.573,10.88-3.514" transform="translate(116.375 289.132)" fill="#f4bf3b"/>
        <path id="Tracciato_3209" data-name="Tracciato 3209" d="M93.217,215.032c0-1.941-4.872-3.514-10.88-3.514s-10.88,1.573-10.88,3.514,4.872,3.514,10.88,3.514,10.88-1.573,10.88-3.514" transform="translate(92.671 274.318)" fill="#f9a230"/>
        <path id="Tracciato_3210" data-name="Tracciato 3210" d="M65.422,221.505c0-1.941-4.872-3.514-10.88-3.514s-10.88,1.573-10.88,3.514,4.872,3.514,10.88,3.514,10.88-1.573,10.88-3.514" transform="translate(56.624 282.713)" fill="#f4bf3b"/>
        <g id="Raggruppa_2133" data-name="Raggruppa 2133" transform="translate(246.356 107.454)" opacity="0.67">
          <g id="Raggruppa_2132" data-name="Raggruppa 2132">
            <g id="Raggruppa_2131" data-name="Raggruppa 2131" clip-path="url(#clip-path-3)">
              <g id="Raggruppa_2130" data-name="Raggruppa 2130">
                <g id="Raggruppa_2129" data-name="Raggruppa 2129" clip-path="url(#clip-path-4)">
                  <path id="Tracciato_3211" data-name="Tracciato 3211" d="M121.852,68.272l-.032-.025-.207-.149-.087-.06-.163-.119-.163-.113-.319-.227-.648-.455c-.45-.31-.868-.6-1.284-.875-.508-.328-.985-.639-1.479-.93-.048-.03-.131-.064-.209-.1l-.085-.037-.448.2a4.055,4.055,0,0,1-4.242-.68,2.913,2.913,0,0,0-4.674.926,5.02,5.02,0,0,0,1.424,5.8,3.65,3.65,0,0,0,1.374.7,3.744,3.744,0,0,0-.338.825,5.03,5.03,0,0,0,2.251,5.54,2.889,2.889,0,0,0,4.275-1.757,4.374,4.374,0,0,0,.186-.827,4.285,4.285,0,0,1,2.373-3.473l5.076-2.288c-.843-.643-1.7-1.279-2.55-1.863Z" transform="translate(-107.064 -24.566)" fill="#fff"/>
                  <path id="Tracciato_3212" data-name="Tracciato 3212" d="M138.629,66.9a3.962,3.962,0,0,0,.829.537,2.93,2.93,0,0,0,4.21-2.258,5,5,0,0,0-2.476-5.428,3.392,3.392,0,0,0-.62-.221,4.982,4.982,0,0,0-1.142-5.85c-1.629-1.454-3.758-1.2-4.752.579a3.833,3.833,0,0,0-.347.852,4.475,4.475,0,0,0-.149.871,3.812,3.812,0,0,1-2.019,3.333l-.831.377c-.1,2.988-.411,5.869-.714,8.574l4.442-2.005a3.377,3.377,0,0,1,3.583.62" transform="translate(-76.959 -39.055)" fill="#fff"/>
                  <path id="Tracciato_3213" data-name="Tracciato 3213" d="M111.92,61.62a2.754,2.754,0,0,0,.852-.179,3.493,3.493,0,0,1,3.572.9l6.165,5.577c-.016-.377-.028-.726-.037-1.031-.08-2.364-.17-5.01-.108-7.729l-2.7-2.448a5.707,5.707,0,0,1-1.764-4.139,5.261,5.261,0,0,0-.09-.923c-.432-2.285-2.288-3.971-4.148-3.765s-3.016,2.228-2.586,4.513a5.454,5.454,0,0,0,.278.96c-1.909-.333-3.468,1.238-3.482,3.507s1.518,4.382,3.427,4.716a2.857,2.857,0,0,0,.622.041" transform="translate(-106.46 -45.377)" fill="#fff"/>
                  <path id="Tracciato_3214" data-name="Tracciato 3214" d="M144.76,73.053c-.565-2.267-2.5-3.806-4.327-3.434a3.054,3.054,0,0,0-.351.1,4,4,0,0,1-3.505-.56c-.294.046-.593.083-.889.117-.425.051-.827.1-1.178.179l-.014,0c-1.171.253-2.318.567-3.491.9-.452.124-.914.257-1.362.386l-.712.2,3.859,3.5a6.58,6.58,0,0,1,2.1,4.426,5.655,5.655,0,0,0,.129.894c.51,2.274,2.412,3.875,4.252,3.574,1.8-.3,2.88-2.311,2.437-4.546a5.193,5.193,0,0,0-.278-.958,2.821,2.821,0,0,0,.809.028c1.86-.209,3.018-2.23,2.586-4.518-.018-.1-.041-.193-.064-.289" transform="translate(-79.147 -17.766)" fill="#fff"/>
                  <path id="Tracciato_3215" data-name="Tracciato 3215" d="M118.809,63.881a1.955,1.955,0,0,0,.25.264l.012,0c.028.025.057.048.087.071a1.3,1.3,0,0,0,.5.241l.025,0,.09.018.06.014.03,0,.053.011.016,0,.048,0,.044-.007.046,0,.044-.009.069-.014.028-.009.051-.021.044-.016.069-.03.067-.037.062-.039.06-.039.051-.037.087-.083.078-.087.067-.085.037-.048c0-.016.023-.032.032-.051a1.733,1.733,0,0,0,.124-.223c.016-.032.032-.064.046-.1l.032-.074a.481.481,0,0,0,.028-.073l.018-.057a.228.228,0,0,1,.021-.055c0-.021.025-.08.037-.124s.016-.053.023-.083.018-.074.025-.113.03-.145.041-.216l0-.074,0-.117,0-.071c0-.044,0-.085,0-.131a3.655,3.655,0,0,0-.547-2.122,1.658,1.658,0,0,0-.967-.73l-.071-.016-.041-.009-.051-.009-.092,0-.067,0a1.277,1.277,0,0,0-.163.03l-.076.023a.518.518,0,0,0-.076.03l-.087.041-.094.055-.067.046c-.03.021-.057.046-.087.069l-.055.051-.053.055c-.016.018-.034.037-.051.057l-.053.062a1.081,1.081,0,0,0-.087.131c-.028.046-.062.1-.092.152l-.028.055-.028.057-.041.092-.025.062,0,.021-.014.041-.016.048c-.014.039-.025.078-.037.115s-.018.062-.028.094-.014.06-.021.09l-.018.083v.014l-.018.1c0,.025,0,.053,0,.076l0,.041,0,.092c0,.032,0,.078,0,.117s0,.1,0,.147a3.609,3.609,0,0,0,.544,2.125c.032.046.067.092.1.133" transform="translate(-93.132 -30.287)" fill="#fff"/>
                  <path id="Tracciato_3216" data-name="Tracciato 3216" d="M156.716,94.663c.243-.057.5-.1.76-.133a10.98,10.98,0,0,0,2.5-.471c.48-.2.253-.758.028-1.247a10.954,10.954,0,0,0-3.08-3.767c-.184-.152-.381-.294-.567-.457l-.064-.06a2.138,2.138,0,0,1-.379-.407.342.342,0,0,1-.08-.163.21.21,0,0,1,.062-.145c.689-.806,2.458-.413,3.4-.4a1.553,1.553,0,0,0,.659-.078c.464-.207.266-.9.09-1.39L160,85.785a28.247,28.247,0,0,0-6.326-9.335c.108-.613.186-1.247.262-1.881l.06-.524c.3-2.671.6-5.368.747-8.085a45.663,45.663,0,0,0-.207-7.667,4.741,4.741,0,0,0-.767-2.382c-.023-.039-.048-.078-.073-.115s-.055-.053-.083-.076-.06-.051-.09-.071l-.092-.062-.1-.055-.1-.044-.106-.037-.113-.025a1.926,1.926,0,0,0-.363-.037c-2.074.021-5.529,3.131-6.516,3.953a28.892,28.892,0,0,0-5.6,6.376c-.6-.271-1.21-.508-1.828-.719l-.464-.152-.354-.122c-.354-.1-.712-.193-1.07-.271l-.209-.044-.632-.133-.062-.014a5.294,5.294,0,0,0-.59-.085l-.092-.021c-.271-.034-.544-.062-.813-.08l-.053-.011c-.2-.014-.4-.025-.6-.032l-.06-.011-.407-.007h-.211a47.555,47.555,0,0,0-5-8.721c-.9-1.194-4.054-5.765-6.091-6.7a1.74,1.74,0,0,0-.386-.131.938.938,0,0,0-.767.129,3.345,3.345,0,0,0-.923,2,46.267,46.267,0,0,0-.845,9.087c-.023,2.2.048,4.428.124,6.643.021.714.046,1.447.094,2.184,0,.106.011.211.021.319a16.573,16.573,0,0,0-7.033,6.509c-.211.409-.457,1.013-.014,1.419a1.544,1.544,0,0,0,.393.253c.08.037.163.071.243.106.744.324,2.807.99,3.326,1.9a.231.231,0,0,1,.041.168.273.273,0,0,1-.087.129,3.237,3.237,0,0,1-1.075.464,7.31,7.31,0,0,0-2.347,1.284c-.069.057-.133.115-.2.175l-.1.09a4.933,4.933,0,0,0-.675.8c-.269.386-.531.838-.076,1.238l.039.034a1.3,1.3,0,0,0,.168.117l.133.078.124.06c.161.078.328.147.482.234.319.191.636.386.951.59l.6.379q.665.444,1.321.9l.652.457.326.232.328.232.085.06.241.177c1.2.815,2.366,1.711,3.526,2.609l.531.413a59.157,59.157,0,0,0,5.49,3.925,36.1,36.1,0,0,0,3.889,2.058l.565.246.565.234q.286.114.572.221a24.244,24.244,0,0,0,3.452,1.024c.62.131,1.24.234,1.865.308a27.214,27.214,0,0,0,8.7-.574c1.261-.273,2.506-.6,3.744-.946l.354-.1c.91-.25,1.824-.526,2.733-.776,1.181-.331,2.352-.65,3.549-.91M145.226,68.359A16.712,16.712,0,0,1,148.8,64.3l.046-.039.025-.021.057-.051.03-.028.032-.028.14-.124.117-.094c.051-.044.106-.083.161-.122l.085-.055a.709.709,0,0,1,.48-.149.3.3,0,0,1,.094.039c.092.064.163.225.163.535a27.422,27.422,0,0,1-.237,3.9,33.012,33.012,0,0,1-.772,3.978,1.519,1.519,0,0,1-.163.439.268.268,0,0,1-.294.11,1.27,1.27,0,0,1-.524-.345l-.1-.078-.175-.188-.087-.094-.08-.092-.078-.09-.037-.041-.071-.078a2.031,2.031,0,0,0-.152-.156A19.433,19.433,0,0,0,145.734,70l-.273-.2c-.595-.439-.606-.845-.234-1.433m-21.609-9.8c.048-.285.129-.4.225-.418a.248.248,0,0,1,.071.016.966.966,0,0,1,.452.347c.051.064.1.129.149.2l.037.053c.023.032.048.069.069.1l.131.2c.094.149.172.287.232.368.39.586.765,1.185,1.116,1.8a26.784,26.784,0,0,1,1.817,3.9c.28.758.223,1.151-.418,1.266-.271.051-.542.108-.813.177a11.343,11.343,0,0,0-1.318.409c-.046.018-.106.044-.168.073l-.069.037-.266.14-.083.041-.094.046-.094.041c-.064.028-.129.048-.191.071l-.094.023a.709.709,0,0,1-.3.011.433.433,0,0,1-.31-.269,1.744,1.744,0,0,1-.1-.505c-.117-1.059-.2-2.1-.23-3.135a29.171,29.171,0,0,1,.243-5.007m-5.894,27.046c-.087-.067-.175-.129-.246-.177l-.423-.3-.326-.23-.659-.464c-.322-.225-.62-.434-.933-.641l-.416-.276-.014,0c-.45-.289-.907-.588-1.378-.871l.037-.037.067-.062.161-.142a6.33,6.33,0,0,1,2.01-1.093l.181-.057a3.507,3.507,0,0,0,1.208-.583l.032-.028.032-.028a1.56,1.56,0,0,0,.466-.834v-.032l0-.032a2.192,2.192,0,0,0-.305-1.486,6.7,6.7,0,0,0-3.585-2.366,10.693,10.693,0,0,1,1.606-2.122l.724-.347.381-.17.2-.092.6-.276.216-.09c.278-.124.56-.248.859-.368l.216-.092.439-.181.448-.181.452-.177.23-.087.459-.17c.23-.085.464-.168.7-.246s.466-.156.7-.232l.124-.041a25.2,25.2,0,0,1,3.1-.79l.377-.064.136-.021c.177-.025.351-.051.526-.071a10.943,10.943,0,0,1,1.139-.076c.11,0,.211-.007.326,0a7.065,7.065,0,0,1,1.328.14,4.33,4.33,0,0,1,1.153.409,2.71,2.71,0,0,1,.248.147c.083.055.133.09.2.138a6.545,6.545,0,0,1,2.922,4.771,6.134,6.134,0,0,1-1.367,4.277c-.044.051-.094.1-.149.156-1.468,1.445-6.613,3.755-9.969,8.79l-.115-.142-.305-.237c-1.238-.951-2.5-1.932-3.8-2.816m23.929,4.419a3.017,3.017,0,0,1-1.082.678,2.928,2.928,0,0,1-1.649.108l-.016,0a3.9,3.9,0,0,1-.992-.365,6.108,6.108,0,0,1-2.239-2.111c-.064-.1-.117-.2-.172-.287-.06.067-.126.131-.2.207a3.71,3.71,0,0,1-2.366,1.1,3.519,3.519,0,0,1-.914-.064l-.016,0a3.59,3.59,0,0,1-.68-.216l-.108-.048a3.258,3.258,0,0,1-.354-.186l-.071-.044a4.022,4.022,0,0,1-.5-.356,4.7,4.7,0,0,1-1-1.146,3.289,3.289,0,0,1-.547-1.369,1.98,1.98,0,0,1-.023-.257.474.474,0,0,1,.1-.361.337.337,0,0,1,.308-.129l.014,0a.581.581,0,0,1,.239.117.542.542,0,0,1,.064.062.508.508,0,0,1,.076.108.867.867,0,0,1,.037.08.607.607,0,0,1,.03.131v.032a1.826,1.826,0,0,0,.432.843,3.716,3.716,0,0,0,.786.705,2.244,2.244,0,0,0,.788.333l.012,0a2.092,2.092,0,0,0,.933-.009,2.593,2.593,0,0,0,1.419-.981,3.1,3.1,0,0,0,.533-1.222,14.8,14.8,0,0,1-.951-1.624,10.733,10.733,0,0,1-.524-1.229,1.375,1.375,0,0,1,0-1,.973.973,0,0,1,.234-.326.761.761,0,0,1,.409-.193,5.162,5.162,0,0,1,1.893.064l.168.034.266.057.273.083.271.1a8.455,8.455,0,0,1,1.137.528l.115.069a1.3,1.3,0,0,1,.609.79,1.259,1.259,0,0,1-.06.992,7.955,7.955,0,0,1-.834,1.328,6.871,6.871,0,0,1-.831.9,4.593,4.593,0,0,0,.416,1.33,4.486,4.486,0,0,0,1.312,1.594l.115.074a2.774,2.774,0,0,0,.576.266c.087.018.175.051.264.071l.011,0a2.084,2.084,0,0,0,.763.023,2.335,2.335,0,0,0,.829-.358,1.218,1.218,0,0,0,.393-.4.973.973,0,0,0,.092-.218V88.3a.389.389,0,0,1,.459-.322l.028,0,.071.039a.659.659,0,0,1,.324.652,2.417,2.417,0,0,1-.17.6,2.385,2.385,0,0,1-.526.753m9.681,4.417c-.443.126-.9.26-1.348.384l-.232.067c-3.282-6.422-8.933-11.4-10.021-13.276a5.546,5.546,0,0,1-.283-.533,8.118,8.118,0,0,1-.861-3.693,4.143,4.143,0,0,1,3.229-4.077,1.8,1.8,0,0,1,.266-.064,2.623,2.623,0,0,1,.485-.044l.1,0,.211.011.11.023.209.03.23.048a14.029,14.029,0,0,1,4.171,1.936l.462.3c.234.152.469.31.705.475.156.106.315.216.471.328l.278.2c.54.39,1.084.8,1.624,1.22l.473.374c.866.687,1.718,1.4,2.529,2.1l.439.381.216.193.423.374.207.188.411.368c.535.485,1.04.955,1.5,1.39a16.84,16.84,0,0,1,1.337,2.678l-.149-.014a4.138,4.138,0,0,0-3.551.781,1.656,1.656,0,0,0-.423,1.1l0,.136.023.163A2.317,2.317,0,0,0,155,89.077c.06.083.122.158.181.23.076.085.154.168.234.246l.055.053.028.041.131.108.08.071c.142.124.283.234.411.34l.188.147.016,0A9.74,9.74,0,0,1,158.56,92.8c-.269.041-.556.078-.85.113-.459.055-.937.11-1.394.2l-.312.069c-1.119.264-2.2.537-3.289.852-.459.126-.93.262-1.385.4" transform="translate(-101.794 -44.634)" fill="#fff"/>
                  <path id="Tracciato_3217" data-name="Tracciato 3217" d="M127.827,62.757a.412.412,0,0,0-.032-.124l-.014-.048-.011-.048c-.014-.046-.028-.092-.044-.136l0-.021a.147.147,0,0,0-.023-.06c-.007-.021-.028-.08-.044-.117s-.034-.087-.055-.129-.037-.08-.06-.122l-.067-.117-.067-.11a.056.056,0,0,0-.018-.039.764.764,0,0,0-.073-.1.5.5,0,0,0-.055-.067l-.113-.124a1.23,1.23,0,0,0-.138-.131l-.113-.09-.03-.007a.726.726,0,0,0-.186-.108l-.126-.057-.064-.014-.131-.028a.469.469,0,0,0-.211,0,.428.428,0,0,0-.227.032.2.2,0,0,0-.135.053.9.9,0,0,0-.4.243,2.2,2.2,0,0,0-.5.9,3.054,3.054,0,0,0-.163.914l0,.087a1.571,1.571,0,0,0,.007.253l0,.08,0,.09c0,.044.012.092.016.138a.28.28,0,0,0,.009.085v.023l0,.057a.425.425,0,0,0,.018.106c.009.034.016.076.025.113s0,0,0,.023c.014.057.028.117.044.172l.023.08.025.078V64.5c.018.06.039.115.062.17s.044.108.069.161l.039.078.039.076a.027.027,0,0,1,.018.028l.055.094c.016.028.034.057.053.083.039.057.078.11.119.161a1.539,1.539,0,0,0,.857.606.712.712,0,0,0,.278.014l.044.009.016,0,.03.007.048-.007.057-.016.064-.018.062-.025.062-.03a1.234,1.234,0,0,0,.349-.232,2.077,2.077,0,0,0,.5-.866.9.9,0,0,0,.064-.237,1.929,1.929,0,0,0,.067-.347c.016-.117.025-.237.03-.356l0-.08a2.886,2.886,0,0,0-.023-.505,2.653,2.653,0,0,0-.08-.48" transform="translate(-84.601 -28.403)" fill="#fff"/>
                </g>
              </g>
            </g>
          </g>
        </g>
      </g>
    </g>
  </g>
</svg>
